<?xml version="1.0" encoding="UTF-8"?>
<svg id="Layer_1" xmlns="http://www.w3.org/2000/svg" xmlns:xlink="http://www.w3.org/1999/xlink" version="1.1" viewBox="0 0 566.93 566.93">
  <!-- Generator: Adobe Illustrator 29.0.0, SVG Export Plug-In . SVG Version: 2.1.0 Build 186)  -->
  <defs>
    <style>
      .st0 {
        font-size: 116.61px;
        letter-spacing: -.03em;
      }

      .st1 {
        fill: none;
      }

      .st2 {
        font-size: 27.96px;
        letter-spacing: -.06em;
      }

      .st2, .st3, .st4, .st5, .st6, .st7, .st8, .st9 {
        fill: #fff;
      }

      .st2, .st10, .st11, .st12, .st13, .st14, .st15, .st16 {
        font-family: Komet-MediumItalic, Komet;
        font-style: italic;
        font-weight: 500;
      }

      .st17 {
        font-size: 52.11px;
        letter-spacing: -.03em;
      }

      .st17, .st18, .st19, .st20, .st3, .st21, .st22, .st4, .st23, .st24, .st25, .st26, .st5, .st27, .st28, .st6, .st29, .st30, .st7, .st31, .st32, .st33, .st34, .st35, .st8, .st36, .st37, .st38, .st9, .st39, .st40, .st41 {
        font-weight: 800;
      }

      .st17, .st18, .st28, .st33, .st38 {
        stroke: #fff;
        stroke-miterlimit: 10;
      }

      .st17, .st19, .st20, .st3, .st21, .st22, .st4, .st23, .st25, .st26, .st30, .st31, .st32, .st35, .st8, .st36, .st37, .st41 {
        font-family: Komet-Heavy, Komet;
      }

      .st17, .st19, .st20, .st21, .st22, .st42, .st23, .st24, .st25, .st26, .st10, .st27, .st11, .st12, .st13, .st29, .st14, .st30, .st31, .st32, .st34, .st35, .st36, .st37, .st15, .st39, .st40, .st16, .st41 {
        fill: #231f20;
      }

      .st43 {
        font-size: 6px;
        letter-spacing: -.03em;
      }

      .st18, .st20 {
        font-size: 48px;
      }

      .st18, .st24, .st5, .st27, .st28, .st6, .st29, .st7, .st33, .st34, .st38, .st9, .st39, .st40 {
        font-family: Komet-Black, Komet;
      }

      .st18, .st33 {
        fill: #f1f2f2;
      }

      .st19 {
        font-size: 48.97px;
        letter-spacing: -.06em;
      }

      .st44 {
        font-size: 6.72px;
        letter-spacing: -.03em;
      }

      .st20 {
        letter-spacing: .05em;
      }

      .st3 {
        font-size: 118.85px;
        letter-spacing: -.03em;
      }

      .st21 {
        font-size: 35.84px;
      }

      .st45, .st7 {
        font-size: 104.19px;
        letter-spacing: -.03em;
      }

      .st22, .st25, .st26 {
        font-size: 36px;
      }

      .st4 {
        font-size: 14.8px;
      }

      .st23 {
        font-size: 54.55px;
        letter-spacing: 0em;
      }

      .st46 {
        fill: url(#radial-gradient);
      }

      .st24 {
        font-size: 101.85px;
      }

      .st25, .st47 {
        letter-spacing: -.03em;
      }

      .st26, .st48 {
        letter-spacing: -.03em;
      }

      .st10 {
        font-size: 30.28px;
        letter-spacing: -.03em;
      }

      .st27 {
        font-size: 58px;
      }

      .st28 {
        font-size: 61.86px;
      }

      .st11 {
        font-size: 54.59px;
        letter-spacing: -.06em;
      }

      .st12 {
        font-size: 32.31px;
        letter-spacing: -.06em;
      }

      .st6 {
        font-size: 88.49px;
        letter-spacing: -.03em;
      }

      .st13 {
        font-size: 20.76px;
        letter-spacing: -.03em;
      }

      .st49 {
        font-size: 149.21px;
        letter-spacing: -.03em;
      }

      .st29 {
        font-size: 95.2px;
        letter-spacing: -.06em;
      }

      .st14 {
        font-size: 17.12px;
        letter-spacing: -.03em;
      }

      .st30 {
        font-size: 42.12px;
        letter-spacing: -.03em;
      }

      .st31 {
        font-size: 126.31px;
        letter-spacing: -.03em;
      }

      .st50 {
        font-size: 8.59px;
        letter-spacing: -.03em;
      }

      .st32 {
        font-size: 50.45px;
        letter-spacing: -.06em;
      }

      .st33 {
        font-size: 38.2px;
      }

      .st34 {
        font-size: 71.79px;
      }

      .st51 {
        fill: url(#radial-gradient1);
      }

      .st35 {
        font-size: 44.35px;
        letter-spacing: -.06em;
      }

      .st8 {
        font-size: 43.85px;
      }

      .st36 {
        font-size: 91.27px;
        letter-spacing: -.03em;
      }

      .st52 {
        letter-spacing: -.06em;
      }

      .st53 {
        letter-spacing: -.06em;
      }

      .st54 {
        letter-spacing: -.06em;
      }

      .st55 {
        letter-spacing: -.06em;
      }

      .st56 {
        letter-spacing: -.06em;
      }

      .st57 {
        letter-spacing: -.06em;
      }

      .st58 {
        letter-spacing: -.06em;
      }

      .st59 {
        letter-spacing: -.06em;
      }

      .st60 {
        letter-spacing: -.06em;
      }

      .st61 {
        letter-spacing: -.06em;
      }

      .st37 {
        font-size: 68.24px;
        letter-spacing: -.03em;
      }

      .st62 {
        letter-spacing: -.03em;
      }

      .st63 {
        letter-spacing: -.03em;
      }

      .st38 {
        font-size: 70.71px;
      }

      .st9 {
        font-size: 68.5px;
        letter-spacing: -.06em;
      }

      .st15 {
        font-size: 18.18px;
        letter-spacing: -.03em;
      }

      .st39 {
        font-size: 78.32px;
        letter-spacing: -.06em;
      }

      .st40 {
        font-size: 69.93px;
        letter-spacing: -.06em;
      }

      .st16 {
        font-size: 43.61px;
        letter-spacing: -.03em;
      }

      .st41 {
        font-size: 77.46px;
        letter-spacing: -.03em;
      }
    </style>
    <radialGradient id="radial-gradient" cx="865.67" cy="293.77" fx="865.67" fy="293.77" r="273.99" gradientUnits="userSpaceOnUse">
      <stop offset="0" stop-color="#fff"/>
      <stop offset="0" stop-color="#231f20"/>
      <stop offset=".04" stop-color="#231f20"/>
    </radialGradient>
    <path id="path" d="M703.57,159.06c38.08,25.64,69.77,31.95,92.21,32.72,36.8,1.27,61.46-11.9,98.16,2.97,15.27,6.19,17.48,11.09,35.69,17.85,26.71,9.91,51.37,10.28,68.41,8.92"/>
    <path id="path1" d="M675.46,210.8c55.56,66.09,101.81,82.34,134.55,84.33,53.7,3.27,89.68-30.66,143.24,7.67,22.28,15.95,25.5,28.58,52.09,46,38.97,25.53,74.96,26.48,99.83,23"/>
    <path id="path2" d="M682.59,293.77c49.34,43.47,91.66,55.75,121.94,58.58,49.65,4.64,84.1-14.53,132.48,11.73,20.13,10.92,22.7,18.87,46.77,30.91,35.28,17.65,68.6,20,91.76,19.06"/>
    <path id="path3" d="M633.95,354c60.93,75.56,111.65,94.13,147.55,96.41,58.89,3.74,98.34-35.06,157.07,8.76,24.43,18.23,27.97,32.68,57.12,52.58,42.74,29.19,82.21,30.28,109.47,26.29"/>
    <radialGradient id="radial-gradient1" cx="-140.58" cy="155.65" fx="-140.58" fy="155.65" r="134.32" gradientTransform="translate(7.85 -7.92) scale(.84 .85)" xlink:href="#radial-gradient"/>
  </defs>
  <path class="st42" d="M1191.85-108.13c3.22,0,3.22-5,0-5s-3.22,5,0,5h0Z"/>
  <g>
    <path class="st1" d="M-497,254.38C-385.93,49.45-188.76,93.22-188.76,93.22"/>
    <text class="st40" transform="translate(-512.11 208.13) rotate(-33.42) scale(.96 1) skewX(-.35)"><tspan x="0" y="0">Rinko</tspan><tspan x="0" y="53.42">Kawauchi</tspan></text>
  </g>
  <text class="st12" transform="translate(-459.02 299.47) rotate(-33.8) scale(.69 1) skewX(-2.15)"><tspan x="0" y="0">At the Edge of the Everyday World </tspan></text>
  <text class="st32" transform="translate(-425.17 335.65) rotate(-33.08) scale(.67 1)"><tspan x="0" y="0">19 October</tspan><tspan x="0" y="40.64">-16 February 2024</tspan></text>
  <text></text>
  <text class="st36" transform="translate(-292.57 526.74) rotate(-35.02) scale(.81 1)"><tspan x="0" y="0">Arnolfini</tspan></text>
  <path class="st42" d="M-43.24,472.08c12.81,37-7.1,77.55-44.46,90.59-37.36,13.03-78.03-6.39-90.83-43.39-12.81-37,7.11-78.4,44.47-91.43,37.36-13.03,78.02,7.24,90.83,44.23Z"/>
  <text class="st5" transform="translate(-149.99 545.34) rotate(-19.57) scale(.48 1) skewX(-1.65)"><tspan class="st45"><tspan x="0" y="0">FREE</tspan></tspan><tspan class="st43"><tspan x="214.81" y="112.87">dx</tspan></tspan></text>
  <text class="st31" transform="translate(-340.1 454.88) rotate(-33.91) scale(.39 1)"><tspan x="0" y="0">11:00 to 18:00pm</tspan></text>
  <text class="st26" transform="translate(43.52 435.17)"><tspan x="0" y="0">Lorem </tspan><tspan x="1.96" y="6">ipsum </tspan><tspan x="-15.96" y="12">dolor sit </tspan><tspan x="3.44" y="18">amet, </tspan><tspan x="-19.18" y="24">consecte</tspan><tspan x="17.23" y="30">tuer </tspan><tspan x="-28.28" y="36">adipiscing </tspan><tspan x="-12.21" y="42">elit, sed </tspan><tspan x="9.69" y="48">diam </tspan><tspan x="-30.83" y="54">nonummy </tspan><tspan x="14.52" y="60">nibh </tspan><tspan x="-17.86" y="66">euismod </tspan><tspan x="-20.66" y="72">tincidunt </tspan><tspan x="32.48" y="78">ut </tspan><tspan x="-7.49" y="84">laoreet </tspan><tspan x="-2.69" y="90">dolore </tspan><tspan x="-4.41" y="96">magna </tspan><tspan x="-.09" y="102">aliqua</tspan><tspan x="-1.57" y="108">m erat </tspan><tspan x="7.49" y="114">volut</tspan><tspan x="17.77" y="120">pat. </tspan><tspan x="30.95" y="126">Ut </tspan></text>
  <ellipse class="st42" cx="152.83" cy="425.3" rx=".63" ry="5.78"/>
  <ellipse class="st42" cx="122.99" cy="404.24" rx="5.07" ry="5.78"/>
  <text class="st26" transform="translate(196.17 393.11) rotate(-50.51)"><tspan x="0" y="0">Lorem ipsum dolor sit amet, </tspan><tspan x="-27.87" y="30">consectetuer adipiscing elit, sed </tspan></text>
  <text></text>
  <text/>
  <text class="st26" transform="translate(133.27 537.4)"><tspan x="0" y="0">Lorem </tspan><tspan x="1.96" y="6">ipsum </tspan><tspan x="-15.96" y="12">dolor sit </tspan><tspan x="-17.27" y="18">amet,od </tspan></text>
  <text class="st26" transform="translate(123.27 350.01)"><tspan x="0" y="0">Lorem ipsum </tspan><tspan x="-14.48" y="6">dolor sit amet, </tspan><tspan x=".09" y="12">consectetuer </tspan><tspan x="-11.66" y="18">adipiscing elit, </tspan><tspan x="29.98" y="24">sed diam </tspan><tspan x="-18.27" y="30">nonummy nibh </tspan><tspan x="33.22" y="36">euismod </tspan><tspan x="9.86" y="42">tincidunt ut </tspan><tspan x="-12.14" y="48">laoreet dolore </tspan><tspan x="-21.54" y="54">magna aliquam </tspan><tspan x="-30.31" y="60">erat volutpat. Ut </tspan><tspan x="2.49" y="66">wisi enim ad </tspan><tspan x="-15.6" y="72">minim veniam, </tspan><tspan x="3.41" y="78">quis nostrud </tspan><tspan x="1.94" y="84">exerci tation </tspan><tspan x="5.43" y="90">ullamcorper </tspan><tspan x="-22.95" y="96">suscipit lobortis </tspan><tspan x="-28.5" y="102">nisl ut aliquip ex </tspan><tspan x="-2.45" y="108">ea commodo </tspan><tspan x="-24.07" y="114">consequat. Duis </tspan><tspan x="-16.35" y="120">autem vel eum </tspan><tspan x="-5" y="126">iriure dolor in </tspan></text>
  <text class="st26" transform="translate(98.96 135.24)"><tspan x="0" y="0">Lorem ipsum dolor sit </tspan><tspan x="19.49" y="6">amet, consectetuer </tspan><tspan x="26.55" y="12">adipiscing elit, sed </tspan><tspan x="7.38" y="18">diam nonummy nibh </tspan><tspan x="7.96" y="24">euismod tincidunt ut </tspan><tspan x="-.59" y="30">laoreet dolore magna </tspan><tspan x="-7.43" y="36">aliquam erat volutpat. </tspan><tspan x="-3.65" y="42">Ut wisi enim ad minim </tspan><tspan x="5.73" y="48">veniam, quis nostrud </tspan><tspan x="70.94" y="54">exerci tation </tspan><tspan x="12.35" y="60">ullamcorper suscipit </tspan><tspan x="-1.51" y="66">lobortis nisl ut aliquip </tspan><tspan x="43.55" y="72">ex ea commodo </tspan><tspan x="-9.63" y="78">consequat. Duis autem </tspan><tspan x="-1.91" y="84">vel eum iriure dolor in </tspan><tspan x="-1.45" y="90">hendrerit in vulputate </tspan><tspan x="25.32" y="96">velit esse molestie </tspan><tspan x="11.39" y="102">consequat, vel illum </tspan><tspan x="-8.81" y="108">dolore eu feugiat nulla </tspan><tspan x="-4.1" y="114">facilisis at vero eros et </tspan><tspan x="-10.57" y="120">accumsan et iusto odio </tspan><tspan x="8.01" y="126">dignissim qui blandit </tspan><tspan x="-11.86" y="132">praesent luptatum zzril </tspan><tspan x="26.48" y="138">delenit augue duis </tspan><tspan x="-5.41" y="144">dolore te feugait nulla </tspan><tspan x="114.91" y="150">facilisi.</tspan><tspan x="0" y="156">Lorem ipsum dolor sit </tspan><tspan x="15.48" y="162">amet, cons ectetuer </tspan><tspan x="26.55" y="168">adipiscing elit, sed </tspan><tspan x="7.38" y="174">diam nonummy nibh </tspan><tspan x="7.96" y="180">euismod tincidunt ut </tspan><tspan x="-.59" y="186">laoreet dolore magna </tspan><tspan x="-7.43" y="192">aliquam erat volutpat. </tspan><tspan x="-3.65" y="198">Ut wisi enim ad minim </tspan><tspan x="5.73" y="204">veniam, quis nostrud </tspan><tspan x="70.94" y="210">exerci tation </tspan><tspan x="12.35" y="216">ullamcorper suscipit </tspan><tspan x="-1.51" y="222">lobortis nisl ut aliquip </tspan><tspan x="43.55" y="228">ex ea commodo </tspan><tspan x="83.04" y="234">consequat.</tspan><tspan x="0" y="240">Lorem ipsum dolor sit </tspan><tspan x="19.49" y="246">amet, consectetuer </tspan></text>
  <text class="st22" transform="translate(228.84 348.57)"><tspan class="st48"><tspan x="0" y="0">Lorem ipsum dolor </tspan></tspan><tspan class="st47"><tspan x="78.53" y="6">sit amet, </tspan></tspan><tspan class="st47"><tspan x="46.6" y="12">consectetuer </tspan></tspan><tspan class="st48"><tspan x="4.06" y="18">adipiscing elit, sed </tspan></tspan><tspan class="st48"><tspan x="23.41" y="24">diam nonummy </tspan></tspan><tspan class="st47"><tspan x="41.21" y="30">nibh euismod </tspan></tspan><tspan class="st48"><tspan x="-4.16" y="36">tincidunt ut laoreet </tspan></tspan><tspan class="st47"><tspan x="37.44" y="42">dolore magna </tspan></tspan><tspan class="st47"><tspan x="46.89" y="48">aliquam erat </tspan></tspan><tspan class="st48"><tspan x="16.65" y="54">volutpat. Ut wisi </tspan></tspan><tspan class="st48"><tspan x="31.03" y="60">enim ad minim </tspan></tspan><tspan class="st47"><tspan x="47.95" y="66">veniam, quis </tspan></tspan><tspan class="st47"><tspan x="35.62" y="72">nostrud exerci </tspan></tspan><tspan class="st48"><tspan x=".06" y="78">tation ullamcorper </tspan></tspan><tspan class="st48"><tspan x="-7.51" y="84">suscipit lobortis nisl </tspan></tspan><tspan class="st48"><tspan x="26.14" y="90">ut aliquip ex ea </tspan></tspan><tspan class="st47"><tspan x="66.98" y="96">commodo </tspan></tspan><tspan class="st48"><tspan x="22.44" y="102">consequat. Duis </tspan></tspan><tspan class="st48"><tspan x="30.16" y="108">autem vel eum </tspan></tspan><tspan class="st48"><tspan x="41.51" y="114">iriure dolor in </tspan></tspan><tspan class="st47"><tspan x="56.6" y="120">hendrerit in </tspan></tspan><tspan class="st48"><tspan x="-5.93" y="126">vulputate velit esse </tspan></tspan><tspan class="st47"><tspan x="78.84" y="132">molestie </tspan></tspan><tspan class="st48"><tspan x="32.79" y="138">consequat, vel </tspan></tspan><tspan class="st48"><tspan x="27.81" y="144">illum dolore eu </tspan></tspan><tspan class="st47"><tspan x="47.63" y="150">feugiat nulla </tspan></tspan><tspan class="st48"><tspan x="-6.79" y="156">facilisis at vero eros </tspan></tspan><tspan class="st48"><tspan x="29.96" y="162">et accumsan et </tspan></tspan><tspan class="st47"><tspan x="67.8" y="168">iusto odio </tspan></tspan><tspan class="st47"><tspan x="45.63" y="174">dignissim qui </tspan></tspan></text>
  <text class="st25" transform="translate(435.97 68.93)"><tspan x="0" y="0">Lorem </tspan><tspan x="1.96" y="6">ipsum </tspan><tspan x="-15.96" y="12">dolor sit </tspan><tspan x="3.44" y="18">amet, </tspan><tspan x="-19.18" y="24">consecte</tspan><tspan x="17.23" y="30">tuer </tspan><tspan x="-19.27" y="36">adipiscin</tspan><tspan x="-25.22" y="42">g elit, sed </tspan><tspan x="9.69" y="48">diam </tspan><tspan x="-21.63" y="54">nonumm</tspan><tspan x="1.32" y="60">y nibh </tspan><tspan x="-17.86" y="66">euismod </tspan><tspan x="-20.66" y="72">tincidunt </tspan><tspan x="32.48" y="78">ut </tspan><tspan x="-7.49" y="84">laoreet </tspan><tspan x="-2.69" y="90">dolore </tspan><tspan x="-4.41" y="96">magna </tspan><tspan x="-15.17" y="102">aliquam </tspan><tspan x="17.51" y="108">erat </tspan><tspan x="-23.77" y="114">volutpat. </tspan><tspan x="-4.13" y="120">Ut wisi </tspan><tspan x="-13.51" y="126">enim ad </tspan><tspan x="0" y="132">minim </tspan><tspan x="-13.63" y="138">veniam, </tspan><tspan x="17.04" y="144">quis </tspan><tspan x="-11.67" y="150">nostrud </tspan><tspan x="2.75" y="156">exerci </tspan><tspan x="1.16" y="162">tation </tspan><tspan x="-20.29" y="168">ullamcor</tspan><tspan x="23.68" y="174">per </tspan><tspan x="-9.04" y="180">suscipit </tspan><tspan x="-11.96" y="186">lobortis </tspan><tspan x="1.42" y="192">nisl ut </tspan><tspan x="-4.96" y="198">aliquip </tspan><tspan x="7.12" y="204">ex ea </tspan><tspan x="-20.01" y="210">commod</tspan><tspan x="38.44" y="216">o </tspan><tspan x="-15.88" y="222">consequ</tspan><tspan x="-10.23" y="228">at. Duis </tspan><tspan x="-1.52" y="234">autem </tspan><tspan x="-12.87" y="240">vel eum </tspan><tspan x="8.86" y="246">iriure </tspan><tspan x="-11.9" y="252">dolor in </tspan><tspan x="-22.55" y="258">hendrerit </tspan><tspan x="34.6" y="264">in </tspan><tspan x="-18.28" y="270">vulputat</tspan></text>
  <text class="st26" transform="translate(68.3 103.53)"><tspan x="0" y="0">Lorem </tspan><tspan x="1.96" y="6">ipsum </tspan><tspan x="-15.96" y="12">dolor sit </tspan><tspan x="3.44" y="18">amet, </tspan><tspan x="-25.76" y="24">consectet</tspan><tspan x="23.81" y="30">uer </tspan><tspan x="-28.28" y="36">adipiscing </tspan><tspan x="-12.21" y="42">elit, sed </tspan><tspan x="9.69" y="48">diam </tspan><tspan x="-30.83" y="54">nonummy </tspan><tspan x="14.52" y="60">nibh </tspan><tspan x="-17.86" y="66">euismod </tspan></text>
  <text class="st2" transform="translate(170.03 299.52) rotate(-31.26) scale(.71 1) skewX(5.08)"><tspan x="0" y="0">At the Edge of the Everyday World </tspan></text>
  <text class="st8" transform="translate(122.95 230.54) rotate(-32.33) scale(.69 1) skewX(7.55)"><tspan class="st55"><tspan x="0" y="0">19 October</tspan></tspan><tspan class="st57"><tspan x="0" y="35.32">-16 February 2024</tspan></tspan></text>
  <text class="st6" transform="translate(402.58 251.32) rotate(-19.25) scale(.51 1) skewX(5.23)"><tspan x="0" y="0">FREE</tspan></text>
  <text class="st4" transform="translate(399.71 271.4) rotate(-17.87) scale(1.75 1) skewX(1.54)"><tspan class="st62"><tspan x="0" y="0">donations</tspan></tspan><tspan class="st63"><tspan x="3.22" y="12.33">welcome</tspan></tspan></text>
  <text class="st3" transform="translate(207.66 470.48) rotate(5.19) scale(.39 1) skewX(13.01)"><tspan x="0" y="0">11:00 to 18:00pm</tspan></text>
  <text class="st9" transform="translate(264.12 300.73) rotate(13.7) scale(.83 .9) skewX(-27.32)"><tspan x="0" y="0">Rinko</tspan><tspan x="0" y="52.33">Kawauchi</tspan></text>
  <text class="st17" transform="translate(113.33 339.05) scale(.71 1)"><tspan x="0" y="0">@</tspan><tspan x="-141.37" y="56.45">Arnolfini</tspan></text>
  <ellipse class="st42" cx="-496.41" cy="1056.98" rx="83.02" ry="84.4" transform="translate(-289.56 -92.3) rotate(-14.95)"/>
  <text class="st7" transform="translate(-541.41 1092.28) rotate(-19.57) scale(.48 1) skewX(-1.65)"><tspan x="0" y="0">FREE</tspan></text>
  <text class="st20" transform="translate(-525.69 958.58) rotate(-88.11) scale(.86 1) skewX(.58)"><tspan x="0" y="0">Rinko Kawauchi</tspan></text>
  <text class="st23" transform="translate(-455.97 953.92) rotate(-72.72) scale(.44 1)"><tspan x="0" y="0">At the edge of everyday world</tspan></text>
  <text class="st30" transform="translate(-399.16 992.72) rotate(-51.31) scale(.84 1)"><tspan x="0" y="0">19 October- 16 February 2024</tspan></text>
  <text class="st37" transform="translate(-363.58 1067.67) rotate(-28.16) scale(.91 1)"><tspan x="0" y="0">11:00 to 18:00</tspan></text>
  <g>
    <path class="st42" d="M-543.14,1482.92c-.5-1.3-.69-2.62-.55-3.96.14-1.34.55-2.61,1.22-3.81.67-1.2,1.6-2.3,2.78-3.29,1.18-.99,2.54-1.79,4.09-2.39,1.58-.62,3.14-.95,4.68-1.01,1.54-.06,2.96.12,4.27.55,1.31.43,2.46,1.09,3.46,1.99,1,.9,1.75,2,2.26,3.3.5,1.29.68,2.6.55,3.94-.13,1.34-.54,2.61-1.21,3.82-.67,1.21-1.6,2.31-2.77,3.3-1.18.99-2.56,1.8-4.14,2.41-1.55.6-3.09.93-4.63,1-1.54.06-2.96-.13-4.27-.57-1.31-.44-2.47-1.1-3.48-2-1.01-.89-1.76-1.99-2.26-3.27Z"/>
    <path class="st42" d="M-560.18,1452.98c-.31-1.23-.61-2.44-.88-3.63s-.51-2.34-.71-3.46c-.46-2.53-.59-4.83-.37-6.89.21-2.06.74-3.87,1.58-5.41s1.98-2.81,3.41-3.81c1.43-.99,3.11-1.67,5.07-2.02,1.14-.21,2.23-.29,3.27-.24,1.04.05,2.02.22,2.94.51.93.29,1.8.7,2.64,1.23.83.52,1.6,1.16,2.29,1.89,2.03-1.43,4.21-2.88,6.53-4.34,2.33-1.47,4.79-2.94,7.37-4.41l1.54,8.42c-1.86,1.06-3.74,2.19-5.66,3.41-1.91,1.21-3.8,2.48-5.67,3.79.15.41.28.83.38,1.26.11.43.21.89.32,1.37l12.02-2.2,1.4,7.68-37.46,6.85ZM-543.45,1441.99c-.03-.16-.06-.31-.08-.47-.03-.15-.06-.31-.09-.49-.19-1.03-.48-1.92-.87-2.68-.39-.76-.88-1.37-1.45-1.82-.57-.45-1.22-.75-1.94-.92-.72-.16-1.5-.16-2.35,0-.81.15-1.52.42-2.12.83-.6.4-1.08.92-1.44,1.55-.36.63-.59,1.37-.69,2.22-.1.85-.05,1.8.14,2.84.03.16.06.31.08.46.03.15.05.3.08.46l10.73-1.96Z"/>
    <path class="st42" d="M-568.44,1420.56c-.05-.66.05-1.28.28-1.87.24-.58.58-1.1,1.04-1.54.46-.45,1.02-.81,1.67-1.09.65-.28,1.36-.45,2.13-.51.79-.06,1.52,0,2.2.19s1.29.47,1.81.84c.52.38.93.84,1.24,1.38.31.54.49,1.15.53,1.81.05.65-.04,1.26-.27,1.84-.23.58-.57,1.1-1.03,1.55-.46.45-1.02.81-1.67,1.09s-1.37.45-2.15.51c-.77.06-1.49,0-2.18-.2-.68-.19-1.29-.47-1.81-.84-.52-.37-.94-.83-1.25-1.38-.32-.54-.5-1.14-.54-1.79ZM-554.14,1423.26l-.54-7.48,27.43-1.98.54,7.48-27.43,1.98Z"/>
    <path class="st42" d="M-555.18,1409.96l.26-5.9,2.37-.25c-.89-.85-1.58-1.81-2.06-2.89-.48-1.08-.69-2.29-.63-3.62.06-1.23.35-2.38.88-3.43.53-1.06,1.3-1.97,2.29-2.73,1-.76,2.24-1.34,3.73-1.74,1.48-.4,3.22-.55,5.2-.46l16.39.74-.34,7.49-15.34-.69c-1-.05-1.84,0-2.52.16-.68.15-1.23.38-1.67.67-.43.3-.74.64-.93,1.04-.19.4-.29.8-.31,1.23-.03.59.1,1.16.39,1.71s.71,1.08,1.26,1.57l18.82.84-.34,7.49-27.47-1.23Z"/>
    <path class="st42" d="M-542.79,1376.42c-.89-1.58-1.95-3.12-3.17-4.62-1.22-1.5-2.6-2.94-4.14-4.34l1.67-7.45c1.77,1.33,3.41,2.73,4.91,4.2,1.5,1.47,2.9,2.98,4.18,4.51,2.74-.62,5.57-1.17,8.5-1.65,2.93-.48,6.03-.94,9.32-1.38l-1.81,8.07c-2.07.26-4.09.55-6.04.86-1.96.32-3.93.68-5.93,1.09.23.43.46.87.67,1.31.21.45.4.89.58,1.34l9.23,2.07-1.64,7.32-39-8.73.72-7.52,21.94,4.91Z"/>
    <path class="st42" d="M-543.14,1345.16c.65-1.54,1.57-2.86,2.74-3.95,1.17-1.09,2.53-1.91,4.08-2.44,1.55-.53,3.25-.76,5.1-.67s3.78.56,5.79,1.41c2.12.9,3.89,1.99,5.31,3.28,1.42,1.29,2.49,2.69,3.21,4.2.73,1.51,1.1,3.1,1.11,4.77.01,1.67-.33,3.32-1.03,4.98-.66,1.56-1.58,2.89-2.75,4-1.18,1.11-2.54,1.93-4.09,2.47-1.55.54-3.25.77-5.1.67s-3.78-.57-5.79-1.42c-2.12-.9-3.9-1.99-5.32-3.28s-2.49-2.7-3.21-4.22c-.71-1.52-1.08-3.12-1.09-4.78-.01-1.66.33-3.33,1.04-5ZM-536.21,1348.45c-.24.57-.33,1.17-.28,1.8.05.63.26,1.25.61,1.86.35.61.86,1.19,1.52,1.75.66.55,1.47,1.03,2.42,1.43,1.04.44,2,.71,2.88.8.88.09,1.67.05,2.35-.13.69-.18,1.28-.48,1.77-.91.49-.42.86-.94,1.12-1.55.25-.58.34-1.19.29-1.82-.05-.63-.26-1.25-.61-1.86-.35-.61-.86-1.19-1.51-1.73-.65-.54-1.46-1.01-2.41-1.42-1.05-.45-2.01-.72-2.88-.83-.87-.1-1.65-.07-2.34.11-.7.18-1.29.48-1.78.91-.49.43-.87.96-1.13,1.58Z"/>
    <path class="st42" d="M-537.15,1312.51l4.74-6.2,12.01,9.18c-.21-1.29-.49-2.61-.84-3.98-.35-1.36-.78-2.76-1.27-4.18-.5-1.42-1.06-2.89-1.7-4.38-.63-1.49-1.34-3.02-2.13-4.59l4.83-6.33c1.8,3.23,3.36,6.3,4.66,9.2,1.3,2.9,2.33,5.6,3.07,8.1,3.72.64,7.5,1.42,11.35,2.34,3.85.92,7.68,1.95,11.49,3.08l-5.25,6.87c-1.38-.37-2.74-.72-4.09-1.05-1.34-.33-2.69-.65-4.03-.95s-2.7-.59-4.08-.86c-1.38-.27-2.79-.54-4.24-.79.06.66.12,1.29.17,1.89.05.61.09,1.21.11,1.79l10.18,7.78-4.74,6.2-30.27-23.12Z"/>
    <path class="st42" d="M-508.38,1297.78c.25-1.73.77-3.4,1.58-4.99.81-1.59,1.89-3.05,3.26-4.37,1.19-1.16,2.41-2.02,3.64-2.58s2.48-.82,3.75-.76c1.26.06,2.54.43,3.84,1.13,1.3.7,2.61,1.73,3.94,3.1l5.54,5.71c.88.91,1.64,1.06,2.27.44.21-.2.36-.42.44-.65.08-.23.14-.49.16-.79l5.15,4.49c-.16.73-.42,1.41-.77,2.06-.36.65-.85,1.27-1.49,1.89-.89.86-1.81,1.38-2.77,1.56-.96.18-1.88.14-2.75-.13.02.5,0,1.05-.07,1.62-.07.58-.21,1.15-.41,1.73-.21.58-.49,1.15-.85,1.72-.36.57-.81,1.12-1.36,1.65-.89.86-1.83,1.48-2.82,1.86-.99.38-1.99.54-2.98.49-.99-.05-1.97-.31-2.92-.78-.95-.47-1.84-1.12-2.66-1.97-.94-.97-1.62-2-2.02-3.09-.41-1.08-.56-2.2-.46-3.34.1-1.14.46-2.28,1.09-3.42.62-1.14,1.5-2.25,2.62-3.34.41-.4.81-.75,1.2-1.05.39-.3.76-.57,1.13-.8l-.66-.68c-.51-.53-1.01-.92-1.5-1.18-.48-.25-.97-.39-1.45-.4-.48,0-.96.11-1.43.36-.48.25-.95.6-1.43,1.06-.98.95-1.73,2.04-2.25,3.26-.51,1.22-.84,2.54-.97,3.97l-5.59-3.8ZM-489.27,1299.15c-.34.16-.65.35-.94.57-.28.22-.56.46-.82.72-.42.41-.75.81-.98,1.19-.23.38-.37.76-.41,1.13-.04.37,0,.71.12,1.04.12.33.33.64.61.93.26.27.53.47.81.6.28.13.57.2.87.2.3,0,.6-.06.88-.2s.56-.34.82-.59c.5-.48.83-1.01,1.01-1.6.18-.59.23-1.18.16-1.78l-2.15-2.21Z"/>
    <path class="st42" d="M-462.47,1256.53c2.2,4.05,4.26,8.21,6.18,12.49,1.92,4.28,3.66,8.67,5.21,13.18l-7.55,5.42-13-12.28,7.48,16.24-7.38,5.3c-3.78-2.92-7.39-5.97-10.84-9.15-3.45-3.18-6.73-6.46-9.85-9.85l6.27-4.5c1.03,1.13,2.08,2.26,3.15,3.38s2.16,2.24,3.27,3.35c1.11,1.11,2.24,2.19,3.38,3.26,1.15,1.07,2.3,2.11,3.46,3.12l-7.82-17.02,6.48-4.66,13.69,12.9c-.59-1.42-1.21-2.85-1.86-4.29-.65-1.43-1.33-2.86-2.03-4.27-.7-1.41-1.41-2.81-2.13-4.19s-1.46-2.74-2.22-4.07l6.09-4.37Z"/>
    <path class="st42" d="M-457.78,1257.52c.71-1.6,1.67-3.06,2.88-4.37,1.21-1.31,2.65-2.42,4.32-3.32,1.46-.79,2.86-1.29,4.21-1.5,1.34-.21,2.61-.11,3.81.29,1.2.4,2.33,1.11,3.39,2.13,1.06,1.02,2.05,2.37,2.95,4.05l3.78,7.01c.6,1.12,1.29,1.46,2.07,1.04.26-.14.46-.31.6-.51.14-.2.27-.44.37-.72l3.74,5.72c-.35.66-.78,1.24-1.3,1.77-.52.53-1.17,1-1.94,1.42-1.09.59-2.12.84-3.09.75-.97-.08-1.84-.37-2.61-.87-.12.49-.29,1-.51,1.54s-.51,1.05-.87,1.55c-.36.5-.79.97-1.29,1.42s-1.08.86-1.76,1.22c-1.09.59-2.16.93-3.22,1.02-1.06.1-2.06-.02-3-.34s-1.81-.84-2.6-1.54c-.79-.71-1.47-1.58-2.03-2.62-.64-1.19-1.01-2.37-1.11-3.52s.06-2.27.47-3.34c.41-1.07,1.07-2.07,1.98-3,.91-.93,2.05-1.76,3.42-2.5.5-.27.98-.5,1.43-.68.45-.18.89-.34,1.31-.46l-.45-.83c-.35-.65-.72-1.16-1.12-1.54-.4-.38-.82-.64-1.28-.78-.46-.14-.95-.16-1.48-.04s-1.08.32-1.66.64c-1.2.65-2.22,1.49-3.05,2.53-.83,1.04-1.5,2.22-2.01,3.56l-4.35-5.18ZM-439.76,1264.02c-.37.06-.72.16-1.06.3s-.66.3-.99.47c-.52.28-.94.57-1.27.88-.33.31-.56.63-.7.97-.14.34-.2.69-.17,1.04.03.35.14.71.34,1.07.18.33.38.59.62.79.23.2.49.34.78.43.29.09.59.1.9.04.31-.06.63-.17.95-.35.61-.33,1.08-.75,1.41-1.26.33-.51.54-1.07.64-1.67l-1.46-2.71Z"/>
    <path class="st42" d="M-405.23,1259.55l-5.42,2.31-1.26-2.05c-.39,1.18-.98,2.22-1.75,3.14-.78.91-1.77,1.63-2.97,2.14-1.15.49-2.32.73-3.51.71-1.19-.02-2.34-.31-3.46-.88-1.12-.57-2.18-1.45-3.19-2.63-1.01-1.18-1.9-2.67-2.67-4.48l-6.43-15.06,6.89-2.95,6.01,14.07c.39.92.81,1.66,1.24,2.21.44.55.88.96,1.34,1.22.46.26.9.39,1.34.39.44,0,.86-.09,1.27-.26.54-.23,1-.6,1.37-1.09.37-.5.66-1.12.87-1.87l-7.37-17.25,6.9-2.95,10.8,25.29Z"/>
    <path class="st42" d="M-386.56,1251.23c-.7,1.08-1.56,2.02-2.56,2.82s-2.16,1.42-3.49,1.87c-1.54.53-3.06.7-4.55.52s-2.89-.69-4.2-1.53c-1.31-.84-2.5-2-3.57-3.47-1.07-1.48-1.96-3.25-2.67-5.33-.74-2.18-1.13-4.23-1.15-6.13-.03-1.91.24-3.62.79-5.12.56-1.51,1.39-2.8,2.49-3.87,1.11-1.06,2.42-1.85,3.93-2.37,1.18-.4,2.31-.59,3.38-.55s2.1.22,3.1.56l.79,7.26c-.68-.3-1.36-.47-2.04-.51-.68-.04-1.33.04-1.94.25-.63.21-1.16.54-1.61.99-.45.44-.78,1-.99,1.65-.21.66-.3,1.41-.26,2.26s.23,1.78.58,2.8c.34,1,.75,1.86,1.23,2.58.48.72,1,1.28,1.59,1.69.58.41,1.2.65,1.84.73.65.08,1.33,0,2.04-.24.84-.28,1.52-.69,2.06-1.23s1-1.2,1.38-2.01l3.81,6.41Z"/>
    <path class="st42" d="M-395.09,1214.02l7.02-2.81,3.7,14.13c.53-.75,1.17-1.38,1.92-1.9.75-.52,1.62-.91,2.6-1.16,1.19-.31,2.37-.37,3.54-.18,1.17.19,2.26.65,3.29,1.38,1.02.73,1.95,1.74,2.77,3.04.82,1.3,1.48,2.91,1.98,4.83l4.15,15.87-7.25,1.9-3.89-14.86c-.25-.97-.55-1.75-.9-2.35-.35-.6-.73-1.07-1.14-1.39-.41-.33-.83-.52-1.27-.58-.43-.06-.85-.04-1.27.07-.57.15-1.07.44-1.52.88-.45.44-.82,1-1.13,1.67l4.77,18.23-7.25,1.9-10.12-38.66Z"/>
    <path class="st42" d="M-365.75,1205.27c.65-.13,1.28-.12,1.89.04.61.16,1.17.44,1.67.84s.93.91,1.29,1.52.62,1.29.77,2.04c.15.77.18,1.51.08,2.21-.1.7-.3,1.34-.61,1.9-.31.56-.71,1.03-1.21,1.41s-1.08.63-1.73.76c-.63.13-1.26.12-1.86-.04s-1.16-.43-1.66-.83c-.5-.4-.93-.91-1.29-1.52-.36-.61-.62-1.3-.78-2.07-.15-.75-.18-1.48-.08-2.18.1-.7.3-1.34.61-1.9s.71-1.04,1.21-1.42,1.07-.64,1.7-.77ZM-366.62,1219.8l7.35-1.48,5.42,26.96-7.35,1.48-5.42-26.96Z"/>
    <path class="st42" d="M-352.41,1253.76c.43-.65.88-1.35,1.34-2.09.46-.75.89-1.52,1.31-2.33.41-.81.79-1.63,1.13-2.48.34-.84.61-1.68.8-2.51-.48-.1-.93-.29-1.35-.57-.42-.27-.81-.62-1.16-1.03-.35-.41-.65-.89-.89-1.42-.24-.53-.42-1.1-.52-1.72-.13-.78-.12-1.52,0-2.23.13-.71.36-1.35.68-1.92.32-.57.75-1.04,1.27-1.42.52-.37,1.1-.61,1.74-.72.65-.11,1.3-.06,1.94.13s1.24.53,1.79,1.01c.55.48,1.02,1.11,1.43,1.9.4.79.69,1.72.87,2.79.21,1.27.21,2.64.02,4.11-.19,1.47-.55,2.97-1.07,4.49-.52,1.52-1.19,3.03-2,4.52-.82,1.49-1.74,2.9-2.78,4.23l-4.54-2.76Z"/>
    <path class="st42" d="M-314.57,1202.28c2.41,6.12,4.61,12.34,6.6,18.65,1.99,6.3,3.67,12.55,5.04,18.75l-8.01.53c-.24-1.09-.48-2.21-.73-3.34-.25-1.13-.52-2.25-.8-3.36l-10.01.67c-.13,1.17-.24,2.33-.35,3.46-.1,1.13-.2,2.26-.28,3.38l-7.79.52c.54-6.32,1.38-12.74,2.53-19.25,1.15-6.51,2.51-12.97,4.07-19.36l9.73-.65ZM-314.38,1226.09c-.67-2.37-1.39-4.72-2.15-7.04-.76-2.32-1.55-4.61-2.38-6.87-.52,2.35-1.01,4.72-1.46,7.12-.45,2.4-.86,4.83-1.21,7.27l7.21-.48Z"/>
    <path class="st42" d="M-303.87,1219.51l.03-7.1h2.84s.02-6.1.02-6.1l7.5-.86-.03,7,5.47.02-.02,7.1-5.47-.02-.03,9.92c0,1.16.21,2.01.63,2.54.42.53,1.04.79,1.85.8.53,0,1.03-.09,1.5-.29.47-.19.95-.5,1.44-.93l.86,7.29c-.83.57-1.73.99-2.72,1.28-.99.28-2,.42-3.04.42-2.62,0-4.61-.86-5.98-2.55-1.37-1.69-2.05-4.28-2.04-7.77l.04-10.72h-2.85Z"/>
    <path class="st42" d="M-276.33,1220.09l.65-7.07,2.83.26.56-6.09,7.55-.19-.64,6.97,5.45.5-.65,7.07-5.45-.5-.91,9.88c-.11,1.16.03,2.02.4,2.58.38.56.97.88,1.77.96.53.05,1.03,0,1.52-.16.49-.15.99-.42,1.51-.8l.21,7.34c-.87.49-1.81.84-2.82,1.03-1.01.19-2.03.24-3.07.15-2.61-.24-4.52-1.26-5.73-3.07-1.21-1.81-1.66-4.45-1.34-7.92l.98-10.67-2.83-.26Z"/>
    <path class="st42" d="M-254.07,1202.55l7.55.3-2.4,14.41c.79-.47,1.64-.78,2.54-.95.9-.17,1.85-.17,2.85,0,1.22.2,2.32.63,3.3,1.28.99.65,1.8,1.52,2.43,2.61.64,1.08,1.07,2.39,1.28,3.91.22,1.52.16,3.26-.16,5.22l-2.69,16.18-7.4-1.23,2.52-15.15c.16-.99.21-1.83.14-2.52-.07-.69-.23-1.27-.47-1.74-.24-.46-.55-.82-.92-1.05-.37-.23-.76-.38-1.18-.45-.58-.1-1.16-.03-1.75.19-.59.22-1.16.57-1.71,1.06l-3.09,18.59-7.4-1.23,6.55-39.42Z"/>
    <path class="st42" d="M-216.64,1249.29c-1.45.49-2.94.77-4.48.83s-3.11-.12-4.74-.54c-1.88-.49-3.48-1.23-4.8-2.23-1.32-1-2.34-2.22-3.06-3.65-.72-1.43-1.13-3.07-1.23-4.9-.1-1.84.13-3.83.69-5.97.56-2.16,1.33-4.04,2.29-5.65.96-1.61,2.07-2.9,3.33-3.9,1.25-.99,2.63-1.65,4.12-1.97s3.04-.27,4.67.15c1.48.39,2.73,1.01,3.76,1.88,1.03.87,1.81,1.96,2.35,3.28.54,1.32.81,2.85.82,4.59s-.26,3.67-.82,5.8c-.13.48-.26.96-.4,1.42-.14.46-.31.94-.5,1.42l-12.93-3.37v.05c-.1.86-.08,1.65.04,2.37.12.72.37,1.34.74,1.88.37.54.85,1,1.45,1.39.6.39,1.32.69,2.18.91,1.15.3,2.3.4,3.43.3,1.13-.1,2.27-.39,3.42-.87l-.33,6.78ZM-219.83,1232.78c.17-.73.26-1.38.26-1.97,0-.59-.08-1.1-.24-1.55-.16-.45-.39-.81-.69-1.1-.3-.29-.68-.5-1.14-.62-.43-.11-.85-.12-1.26-.02-.41.09-.81.29-1.18.6-.38.31-.74.71-1.09,1.22-.35.5-.67,1.11-.96,1.8l6.29,1.64Z"/>
    <path class="st42" d="M-186.56,1260.84c-1.5.29-3.02.36-4.55.21-1.53-.15-3.07-.54-4.62-1.18-1.79-.74-3.28-1.7-4.45-2.87-1.17-1.17-2.02-2.51-2.53-4.03s-.7-3.19-.55-5.03c.15-1.83.65-3.77,1.5-5.82.85-2.06,1.87-3.83,3.04-5.28,1.17-1.46,2.45-2.59,3.83-3.41,1.38-.81,2.83-1.28,4.34-1.4s3.05.14,4.6.78c1.41.58,2.57,1.38,3.47,2.37.9,1,1.52,2.19,1.88,3.57.35,1.38.41,2.94.19,4.66-.23,1.72-.76,3.6-1.6,5.63-.19.46-.39.91-.59,1.35-.2.44-.43.88-.68,1.34l-12.35-5.1-.02.05c-.21.84-.29,1.63-.27,2.35.03.73.19,1.38.48,1.97.29.58.71,1.11,1.25,1.57.54.47,1.22.87,2.03,1.2,1.1.45,2.22.71,3.36.76,1.14.05,2.31-.08,3.5-.4l-1.25,6.67ZM-187.48,1244.05c.27-.7.45-1.33.53-1.92.08-.58.07-1.1-.02-1.57-.1-.46-.27-.86-.54-1.19-.26-.33-.61-.58-1.04-.76-.41-.17-.82-.23-1.24-.2-.42.04-.84.18-1.25.43-.42.25-.83.6-1.25,1.06-.42.45-.82,1-1.2,1.65l6.01,2.48Z"/>
    <path class="st42" d="M-171.78,1271.04l.86-2.31c-1.29.46-2.55.64-3.78.54-1.23-.09-2.41-.45-3.55-1.07-1.24-.68-2.22-1.58-2.96-2.72-.73-1.14-1.19-2.43-1.37-3.87-.17-1.44-.07-3,.31-4.69s1.05-3.41,2.01-5.16c1.12-2.04,2.41-3.72,3.88-5.06,1.47-1.33,3.06-2.29,4.77-2.86,1.71-.57,3.52-.74,5.44-.52,1.92.22,3.88.88,5.88,1.96.12.06.22.12.31.17.09.05.19.1.29.16l5.69-10.39,7.03,2.78-19.65,35.87-5.16-2.83ZM-163.38,1252.35c-.17-.09-.34-.18-.5-.28-.17-.09-.34-.19-.52-.29-.93-.51-1.82-.81-2.67-.9-.85-.09-1.65.02-2.42.31-.76.29-1.47.77-2.12,1.42-.65.65-1.25,1.47-1.79,2.46-.46.85-.8,1.66-1.02,2.44-.22.78-.3,1.49-.26,2.13.04.64.21,1.22.51,1.71.3.5.72.9,1.26,1.19.57.31,1.19.47,1.87.47.68,0,1.36-.13,2.05-.41l5.63-10.27Z"/>
    <path class="st42" d="M-136.75,1269.78c-.13-.09-.25-.19-.34-.28-.1-.09-.2-.19-.31-.29-.14.34-.29.68-.46,1.02s-.38.68-.62,1.01c-.9,1.25-1.9,2.24-3.02,2.96-1.12.73-2.28,1.19-3.48,1.39-1.2.2-2.42.15-3.66-.15-1.24-.31-2.43-.85-3.59-1.64-.08-.06-.16-.12-.23-.17s-.14-.12-.22-.19c-.27.09-.52.23-.75.4-.23.17-.44.39-.63.65-.15.2-.25.41-.32.63-.07.22-.08.44-.04.66.04.22.12.44.26.65.13.2.32.39.56.56l1.63,1.17c1.16.83,2.09,1.73,2.78,2.69.7.96,1.15,1.96,1.37,3.01.22,1.05.19,2.12-.08,3.22-.27,1.1-.8,2.2-1.58,3.29-.88,1.23-1.9,2.19-3.05,2.87s-2.38,1.07-3.7,1.17-2.71-.09-4.16-.58c-1.45-.48-2.94-1.27-4.46-2.36-1.41-1.01-2.56-2.09-3.44-3.22-.88-1.14-1.49-2.31-1.82-3.5-.33-1.19-.38-2.39-.15-3.6s.75-2.38,1.57-3.51c.53-.74,1.12-1.38,1.77-1.92.65-.54,1.33-.96,2.04-1.27s1.45-.51,2.21-.59c.76-.08,1.53-.04,2.3.12-.1-.54-.08-1.09.07-1.65.15-.56.42-1.12.82-1.67.4-.55.86-1.01,1.38-1.38.53-.37,1.11-.66,1.75-.86-.4-1.28-.48-2.63-.23-4.05.25-1.42.89-2.86,1.92-4.29.94-1.31,1.98-2.32,3.13-3.04,1.15-.72,2.34-1.16,3.58-1.34,1.24-.18,2.49-.09,3.74.26,1.25.35,2.45.93,3.6,1.75.55.39,1.04.81,1.48,1.24.44.44.82.9,1.15,1.4l6.61,4.74-4.03,5.62-1.34-.96ZM-158.76,1281.24c-.85-.61-1.63-.9-2.33-.87-.71.03-1.29.36-1.74.99-.27.37-.42.77-.47,1.18-.04.41.01.84.17,1.28.16.44.42.88.8,1.32.38.45.86.88,1.44,1.3.58.42,1.15.73,1.7.94.55.21,1.06.32,1.53.33.47.01.9-.07,1.28-.26.38-.18.71-.45.96-.81.44-.62.58-1.26.4-1.92s-.65-1.27-1.41-1.81l-2.33-1.67ZM-144.51,1262.86c-.32-.23-.68-.39-1.07-.47-.39-.08-.79-.08-1.18,0s-.78.25-1.17.51c-.39.26-.74.61-1.05,1.05-.32.45-.55.9-.67,1.35-.12.45-.16.88-.11,1.29.05.41.18.79.38,1.13s.47.64.81.88c.32.23.68.39,1.06.47.39.08.78.08,1.18-.01.4-.09.79-.26,1.18-.51.39-.25.74-.59,1.05-1.03s.53-.88.65-1.35c.12-.46.16-.9.11-1.31-.05-.41-.17-.78-.37-1.12s-.47-.63-.8-.87Z"/>
    <path class="st42" d="M-130.65,1299.82c-1.51-.22-2.97-.66-4.36-1.31-1.39-.65-2.72-1.53-3.97-2.64-1.45-1.29-2.53-2.69-3.25-4.18-.72-1.49-1.07-3.04-1.06-4.64.01-1.6.4-3.25,1.15-4.92.75-1.68,1.86-3.34,3.34-5,1.49-1.67,3.03-2.99,4.62-3.98,1.59-.99,3.17-1.63,4.74-1.95,1.57-.31,3.09-.27,4.56.12s2.83,1.15,4.08,2.26c1.14,1.02,1.97,2.15,2.49,3.39s.71,2.57.59,3.99c-.13,1.42-.58,2.91-1.37,4.46-.79,1.55-1.91,3.15-3.37,4.78-.33.37-.67.73-1.01,1.08s-.7.69-1.09,1.04l-9.97-8.9-.04.04c-.47.73-.82,1.44-1.03,2.13-.22.69-.28,1.36-.2,2.01.08.65.3,1.28.66,1.9.35.62.86,1.22,1.52,1.81.89.79,1.86,1.4,2.92,1.83,1.06.43,2.2.69,3.44.79l-3.39,5.88ZM-125.96,1283.67c.49-.57.86-1.11,1.13-1.63.27-.52.43-1.02.5-1.48.06-.47.03-.9-.11-1.3-.14-.4-.38-.75-.73-1.07-.33-.29-.7-.49-1.11-.6-.41-.1-.85-.11-1.33,0-.47.1-.98.29-1.53.58-.54.29-1.1.68-1.68,1.17l4.85,4.33Z"/>
    <path class="st42" d="M-94.87,1300.94c1.05,1.3,1.79,2.73,2.2,4.27.41,1.55.49,3.13.24,4.75-.25,1.62-.86,3.22-1.81,4.81s-2.27,3.08-3.97,4.45c-1.79,1.45-3.59,2.5-5.39,3.14-1.8.65-3.54.93-5.22.86-1.68-.07-3.25-.49-4.73-1.26-1.48-.77-2.78-1.85-3.91-3.25-1.06-1.31-1.81-2.75-2.23-4.31-.42-1.56-.51-3.15-.26-4.77.25-1.62.85-3.23,1.81-4.81.96-1.59,2.28-3.07,3.97-4.44,1.79-1.45,3.59-2.5,5.4-3.15,1.81-.65,3.55-.93,5.23-.84,1.68.09,3.26.52,4.73,1.29,1.48.77,2.78,1.86,3.92,3.27ZM-101.04,1305.5c-.39-.48-.87-.84-1.45-1.09-.58-.25-1.22-.36-1.93-.34-.71.02-1.46.2-2.25.52s-1.6.81-2.4,1.46c-.88.71-1.56,1.43-2.06,2.16-.5.73-.83,1.45-.99,2.14s-.17,1.35-.03,1.98c.14.63.42,1.2.84,1.72.4.49.89.86,1.47,1.11.58.25,1.22.36,1.93.34.71-.02,1.45-.2,2.24-.52.78-.32,1.58-.81,2.38-1.46.89-.72,1.58-1.44,2.08-2.16.5-.72.84-1.42,1.01-2.12s.18-1.36.04-2c-.15-.64-.43-1.22-.86-1.74Z"/>
    <path class="st42" d="M-90.74,1319.18l-1.72-2.54,5.88-3.98,1.72,2.54,1.91-1.29c1.51-1.02,2.96-1.76,4.33-2.22,1.38-.46,2.67-.65,3.87-.57,1.2.08,2.3.43,3.31,1.04,1,.61,1.89,1.48,2.65,2.61.5.74.88,1.5,1.15,2.27.26.77.42,1.55.47,2.33l-6.68,3.24c.03-.5-.01-.96-.13-1.39-.12-.43-.29-.81-.51-1.14-.44-.65-1-.97-1.69-.99s-1.51.31-2.48.96l-2.02,1.37,2.74,4.06-5.88,3.98-2.74-4.06-16.9,11.42-4.2-6.21,16.9-11.42Z"/>
  </g>
  <text class="st39" transform="translate(32.92 697.53) rotate(-8.73) scale(1.63 .92) skewX(-13.21)"><tspan x="0" y="0">Rinko</tspan><tspan x="0" y="59.83">Kawauchi</tspan></text>
  <text class="st11" transform="translate(15.05 815.86) rotate(-5.02) scale(.28 .93) skewX(-51.69)"><tspan x="0" y="0">At the Edge of the Everyday World </tspan></text>
  <text class="st19" transform="translate(4.02 926.64) rotate(-1.45) scale(.65 .97) skewX(-20.48)"><tspan x="0" y="0">19 October</tspan><tspan x="0" y="39.45">-16 February 2024</tspan></text>
  <path class="st42" d="M545.88,788.72c13.18,46.75-1.68,96.8-33.18,111.78-31.51,14.98-67.73-10.77-80.91-57.53s1.68-96.8,33.18-111.78,67.73,10.77,80.91,57.53Z"/>
  <text class="st5" transform="translate(455.55 874.9) rotate(-25.22) scale(.39 .98) skewX(-24.53)"><tspan class="st0"><tspan x="0" y="0">FREE</tspan></tspan><tspan class="st44"><tspan x="240.42" y="126.33">dx</tspan></tspan></text>
  <text class="st41" transform="translate(15.29 885.35) rotate(-4.43) scale(.35 .97) skewX(-34.64)"><tspan x="0" y="0">11:00 to 18:00pm</tspan></text>
  <text class="st35" transform="translate(394.64 1570.98) rotate(.83) scale(.52 1) skewX(-.18)"><tspan x="0" y="0">19 October</tspan><tspan x="0" y="35.72">-16 February 2024</tspan><tspan x="0" y="107.17">FREE</tspan></text>
  <g>
    <path class="st42" d="M-503.03,1453.9c.55-1.22,1.42-2.2,2.58-2.93,1.17-.73,2.53-1.21,4.07-1.43,1.54-.22,3.24-.18,5.08.13,1.84.31,3.7.89,5.57,1.74,1.91.87,3.59,1.89,5.04,3.08,1.44,1.18,2.59,2.43,3.44,3.73.85,1.31,1.38,2.64,1.59,4,.21,1.36.04,2.65-.51,3.87-.55,1.21-1.4,2.18-2.56,2.92-1.16.74-2.51,1.22-4.06,1.44-1.55.23-3.24.19-5.08-.12-1.84-.31-3.72-.9-5.63-1.76-1.87-.85-3.53-1.87-4.98-3.05-1.44-1.18-2.59-2.43-3.44-3.74-.85-1.31-1.38-2.65-1.6-4.01-.22-1.36-.06-2.65.49-3.85Z"/>
    <path class="st42" d="M-480.85,1413.88l-3.85,6.79,32.42,18.38-3.69,6.51-32.42-18.38-3.85,6.79-8.6-4.88,11.4-20.1,8.6,4.88Z"/>
    <path class="st42" d="M-489.24,1404.31l3.04-6.62,15.02,10.07c-.23-.97-.28-1.9-.14-2.8s.48-1.75,1.02-2.56c.66-.98,1.52-1.74,2.6-2.26,1.07-.53,2.32-.78,3.74-.76s3.01.35,4.77.99c1.75.64,3.65,1.65,5.69,3.01l16.87,11.31-4,5.98-15.8-10.59c-1.03-.69-1.94-1.19-2.72-1.51-.79-.32-1.48-.49-2.08-.53-.6-.04-1.09.04-1.48.25-.39.21-.7.48-.93.81-.31.47-.45,1.03-.42,1.67.03.65.22,1.36.55,2.12l19.38,12.99-4.01,5.98-41.1-27.55Z"/>
    <path class="st42" d="M-424.97,1396.07c.04,1.61-.16,3.14-.61,4.58s-1.18,2.8-2.18,4.05c-1.16,1.45-2.51,2.51-4.04,3.16-1.53.66-3.2.91-5,.77-1.8-.14-3.71-.68-5.74-1.62-2.03-.94-4.11-2.26-6.25-3.98-2.16-1.73-3.95-3.49-5.36-5.27-1.42-1.79-2.46-3.53-3.11-5.24-.66-1.71-.91-3.34-.76-4.89.15-1.55.73-2.95,1.73-4.21.92-1.15,2.02-1.95,3.31-2.41,1.29-.46,2.74-.57,4.36-.32,1.62.25,3.37.85,5.26,1.82,1.89.96,3.9,2.3,6.02,4,.48.39.95.78,1.41,1.17s.91.81,1.38,1.25l-8.01,10.01.05.04c.91.56,1.77.99,2.59,1.28.82.29,1.58.41,2.29.37.71-.04,1.38-.22,2-.55.62-.33,1.2-.83,1.73-1.49.71-.89,1.21-1.89,1.48-2.99.27-1.1.34-2.31.21-3.63l7.26,4.1ZM-443.98,1389.76c-.73-.57-1.41-1.01-2.05-1.34s-1.22-.55-1.76-.65c-.54-.1-1.01-.1-1.43.02-.42.12-.77.35-1.05.7-.26.33-.42.71-.45,1.14-.04.43.05.91.25,1.42.21.52.52,1.08.95,1.69.43.61.98,1.24,1.63,1.89l3.9-4.87Z"/>
    <path class="st42" d="M-403.31,1374.48c-.18,1.6-.58,3.08-1.23,4.46s-1.55,2.61-2.71,3.72c-1.35,1.28-2.83,2.14-4.43,2.58-1.61.44-3.29.47-5.05.08s-3.59-1.18-5.47-2.39c-1.88-1.2-3.76-2.8-5.65-4.79-1.9-2.01-3.43-3.99-4.59-5.96-1.16-1.96-1.95-3.84-2.37-5.62-.42-1.78-.45-3.43-.08-4.95s1.13-2.83,2.29-3.93c1.07-1.01,2.27-1.65,3.61-1.93,1.34-.28,2.79-.19,4.36.28,1.57.47,3.22,1.3,4.97,2.52,1.74,1.21,3.55,2.81,5.42,4.78.43.45.84.9,1.23,1.35.4.45.79.92,1.19,1.43l-9.31,8.82.05.05c.82.68,1.62,1.22,2.39,1.62.77.4,1.51.62,2.22.69.71.06,1.39-.03,2.05-.28.66-.25,1.3-.66,1.91-1.24.83-.79,1.45-1.71,1.87-2.76.42-1.05.65-2.24.7-3.57l6.63,5.06ZM-421.28,1365.64c-.65-.66-1.26-1.2-1.85-1.61-.59-.41-1.14-.71-1.66-.89-.52-.18-.99-.23-1.42-.18-.43.06-.81.24-1.14.55-.31.29-.51.65-.6,1.07-.09.42-.07.9.06,1.45.13.54.37,1.14.71,1.8.34.66.8,1.36,1.36,2.1l4.53-4.29Z"/>
    <path class="st42" d="M-404.92,1335.95c2.86,5.05,5.54,10.17,8.04,15.35,2.5,5.19,4.83,10.52,6.99,15.99l-6.87,5.22c-4.7-3.54-9.21-7.21-13.55-11-4.33-3.79-8.55-7.75-12.63-11.86l5.88-4.47c1.36,1.39,2.74,2.78,4.15,4.16,1.41,1.39,2.84,2.76,4.29,4.11,1.45,1.35,2.93,2.69,4.42,4.02,1.49,1.33,3,2.62,4.52,3.88-.82-1.8-1.66-3.59-2.55-5.38-.88-1.79-1.78-3.57-2.69-5.33-.92-1.76-1.86-3.51-2.82-5.23s-1.94-3.43-2.91-5.1l5.73-4.35Z"/>
    <path class="st42" d="M-368.92,1351.28c-.53,1.52-1.26,2.87-2.2,4.07-.94,1.19-2.1,2.2-3.48,3.01-1.6.95-3.24,1.45-4.9,1.52-1.66.07-3.31-.29-4.94-1.06-1.63-.77-3.23-1.95-4.79-3.55-1.56-1.6-3.04-3.58-4.43-5.94-1.4-2.38-2.45-4.66-3.14-6.83s-1.04-4.18-1.05-6.01c0-1.83.34-3.44,1.03-4.84.69-1.39,1.73-2.5,3.12-3.32,1.26-.75,2.58-1.1,3.95-1.07,1.37.03,2.76.45,4.19,1.25,1.42.8,2.85,1.99,4.27,3.57,1.43,1.57,2.83,3.53,4.21,5.88.31.53.61,1.06.9,1.59.29.53.57,1.08.84,1.66l-11.05,6.5.03.06c.65.85,1.31,1.56,1.97,2.11.67.56,1.33.95,2.01,1.16.68.22,1.36.28,2.06.19.7-.09,1.41-.35,2.14-.78.98-.58,1.8-1.33,2.45-2.27.65-.93,1.14-2.04,1.48-3.32l5.32,6.42ZM-384.45,1338.63c-.48-.79-.96-1.45-1.44-1.98-.48-.54-.95-.95-1.42-1.24-.46-.29-.91-.45-1.34-.49-.43-.04-.84.06-1.23.29-.36.21-.64.52-.83.91s-.28.87-.27,1.42c0,.56.11,1.2.29,1.91.19.72.47,1.5.86,2.35l5.38-3.17Z"/>
    <path class="st42" d="M-380.37,1321.94l5.15-2.36,2,3.28c.02-.79.08-1.52.18-2.2.09-.67.24-1.28.44-1.81.2-.53.46-.97.78-1.34.32-.37.7-.65,1.15-.86.37-.17.74-.28,1.1-.32.36-.04.73-.03,1.1.04l3.64,9.21c-.35-.06-.69-.07-1.02-.04-.33.03-.63.11-.91.24-.29.14-.55.33-.77.57s-.41.55-.57.92c-.16.36-.28.8-.37,1.3-.09.5-.13,1.08-.14,1.74l8.97,19.58-6.54,3-14.18-30.95Z"/>
    <path class="st42" d="M-345.56,1308.43c.54,2.67,1.08,5.47,1.59,8.41s.97,5.89,1.38,8.84c.4,2.95.74,5.84,1.02,8.69s.46,5.52.55,8.01c.12,2.86.06,5.43-.17,7.73-.23,2.3-.64,4.3-1.21,6-.58,1.7-1.33,3.09-2.25,4.18-.92,1.08-2,1.83-3.24,2.26-.8.27-1.62.38-2.47.33-.84-.05-1.63-.25-2.35-.59l-2.21-9.03c.65.38,1.29.61,1.91.67.62.06,1.2,0,1.73-.18.49-.17.93-.45,1.31-.85.38-.4.69-.89.94-1.49.25-.6.43-1.28.54-2.06.11-.77.15-1.62.12-2.54-2.06-3.06-3.97-5.95-5.72-8.68-1.75-2.72-3.38-5.35-4.88-7.88s-2.91-4.98-4.23-7.36c-1.31-2.38-2.57-4.78-3.78-7.2l7.01-2.38c.82,1.73,1.7,3.47,2.62,5.23.92,1.75,1.87,3.5,2.84,5.22.97,1.73,1.97,3.45,2.99,5.17,1.02,1.72,2.06,3.41,3.13,5.05-.25-2.11-.53-4.17-.82-6.19-.29-2.01-.61-3.99-.94-5.92-.33-1.93-.68-3.82-1.05-5.67-.37-1.85-.74-3.68-1.13-5.49l6.77-2.29Z"/>
    <path class="st42" d="M-320.1,1337.82l-.93-2.89c-.61,1.41-1.38,2.53-2.31,3.36s-2.01,1.37-3.22,1.62c-1.33.27-2.63.13-3.91-.43-1.28-.55-2.46-1.46-3.54-2.74s-2.06-2.87-2.91-4.79c-.86-1.93-1.53-4.1-2.02-6.53-.57-2.82-.78-5.43-.64-7.83.15-2.4.63-4.52,1.46-6.36.83-1.84,1.99-3.37,3.5-4.58,1.5-1.22,3.32-2.05,5.46-2.51.12-.02.23-.05.33-.07.1-.02.2-.04.31-.06l-2.91-14.38,6.82-2.56,10.05,49.63-5.54,1.12ZM-326.63,1313.34c-.18.04-.36.07-.54.11-.18.04-.37.07-.56.11-1,.2-1.82.58-2.48,1.13-.66.55-1.16,1.26-1.5,2.12s-.53,1.85-.55,2.97c-.02,1.12.1,2.37.38,3.73.24,1.17.54,2.22.91,3.13.37.92.78,1.68,1.24,2.27.46.6.96,1.02,1.5,1.29.54.26,1.1.33,1.68.22.61-.12,1.15-.44,1.63-.94.48-.5.87-1.15,1.17-1.93l-2.88-14.21Z"/>
    <path class="st42" d="M-315.26,1306.01c1.23-1.42,2.63-2.54,4.19-3.38,1.57-.83,3.26-1.31,5.07-1.44,1.59-.11,3.02.07,4.28.54,1.26.48,2.35,1.25,3.26,2.33.91,1.08,1.64,2.47,2.19,4.17.55,1.7.91,3.73,1.08,6.09l.7,9.83c.11,1.57.59,2.32,1.43,2.26.28-.02.52-.1.72-.25.2-.15.4-.35.59-.61l1.15,8.37c-.55.55-1.16.98-1.82,1.29-.66.31-1.41.5-2.25.56-1.18.08-2.19-.18-3.01-.78-.83-.61-1.49-1.39-1.98-2.36-.29.49-.63.97-1.03,1.45-.4.48-.85.91-1.35,1.28-.5.37-1.06.67-1.67.92-.61.24-1.28.39-2.01.44-1.18.08-2.26-.1-3.23-.55-.97-.45-1.81-1.11-2.53-1.96-.71-.86-1.28-1.89-1.72-3.1-.43-1.21-.7-2.54-.8-4-.12-1.67,0-3.18.35-4.53.35-1.34.91-2.5,1.67-3.49.76-.99,1.72-1.76,2.88-2.31,1.16-.56,2.48-.89,3.97-1,.55-.04,1.06-.04,1.53,0,.47.04.91.09,1.33.17l-.08-1.16c-.06-.91-.2-1.68-.41-2.31-.21-.63-.49-1.15-.84-1.55-.35-.4-.78-.67-1.29-.83-.51-.15-1.08-.21-1.71-.16-1.31.09-2.52.5-3.65,1.22-1.12.72-2.16,1.7-3.12,2.92l-1.89-8.08ZM-301.78,1322.79c-.35-.13-.7-.21-1.04-.22-.35-.02-.7-.02-1.05,0-.56.04-1.05.15-1.45.32-.41.17-.73.41-.99.72-.25.31-.43.66-.54,1.07-.11.41-.14.86-.1,1.37.03.46.11.87.25,1.21.13.34.31.64.53.89.22.25.48.43.78.53.3.1.62.14.97.11.66-.05,1.24-.27,1.72-.67s.89-.91,1.2-1.53l-.27-3.81Z"/>
    <path class="st42" d="M-269.16,1301.95c-.46,2.68-.97,5.49-1.56,8.42-.58,2.93-1.22,5.84-1.91,8.74-.69,2.89-1.42,5.72-2.19,8.48s-1.56,5.31-2.39,7.67c-.92,2.71-1.91,5.09-2.95,7.15-1.05,2.06-2.15,3.78-3.3,5.16-1.15,1.38-2.35,2.41-3.6,3.08-1.25.68-2.53.99-3.84.93-.85-.04-1.65-.23-2.42-.59-.77-.35-1.43-.82-1.98-1.4l1.2-9.22c.47.6.98,1.03,1.54,1.31.56.28,1.12.43,1.68.46.52.02,1.03-.08,1.53-.32.5-.23.97-.58,1.42-1.05.45-.47.87-1.04,1.25-1.72.38-.68.73-1.46,1.03-2.33-.82-3.6-1.55-6.99-2.2-10.16-.65-3.17-1.21-6.21-1.7-9.11-.49-2.9-.91-5.7-1.28-8.39-.36-2.7-.67-5.39-.92-8.08l7.4.32c.14,1.91.33,3.85.55,5.82.23,1.97.48,3.94.76,5.89.28,1.96.59,3.93.92,5.9.33,1.97.69,3.92,1.09,5.84.53-2.06,1.02-4.08,1.47-6.06.45-1.99.88-3.94,1.26-5.86.39-1.92.74-3.81,1.07-5.67.33-1.86.64-3.7.93-5.52l7.14.31Z"/>
    <path class="st42" d="M-221.23,1311.28c-1.82,5.39-3.82,10.75-5.98,16.08-2.17,5.33-4.53,10.61-7.1,15.82l-8.68-2.03,1.77-21.91-8.11,20.43-8.48-1.98c.01-5.81.22-11.59.63-17.33.41-5.74.99-11.43,1.76-17.07l7.21,1.68c-.26,1.87-.51,3.75-.75,5.65-.23,1.9-.45,3.81-.64,5.73-.2,1.92-.37,3.84-.51,5.76-.15,1.92-.27,3.82-.36,5.71l8.51-21.39,7.46,1.74-1.84,23.05c.75-1.73,1.49-3.5,2.21-5.3.72-1.79,1.42-3.6,2.1-5.42.68-1.82,1.34-3.64,1.98-5.45s1.25-3.62,1.83-5.42l7,1.64Z"/>
    <path class="st42" d="M-206.29,1316.34c1.5.57,2.76,1.49,3.79,2.74,1.02,1.25,1.76,2.77,2.2,4.55s.57,3.79.37,6.02c-.2,2.23-.78,4.61-1.74,7.13-1.02,2.67-2.21,4.94-3.57,6.81-1.36,1.87-2.82,3.34-4.37,4.42-1.55,1.08-3.16,1.74-4.82,1.98-1.66.24-3.3.05-4.9-.56-1.52-.58-2.79-1.5-3.83-2.76-1.04-1.26-1.78-2.78-2.23-4.56-.45-1.78-.58-3.79-.37-6.02.2-2.23.79-4.61,1.75-7.13,1.02-2.67,2.21-4.94,3.58-6.82,1.37-1.88,2.83-3.35,4.39-4.41,1.56-1.06,3.17-1.71,4.83-1.96,1.66-.24,3.3-.05,4.93.57ZM-209.97,1325.09c-.55-.21-1.15-.24-1.78-.09-.63.15-1.26.48-1.89.98-.63.51-1.24,1.19-1.83,2.06-.59.86-1.11,1.9-1.57,3.09-.5,1.3-.82,2.49-.96,3.56-.14,1.07-.15,2,0,2.8.14.8.41,1.46.8,1.99.39.53.89.91,1.48,1.13.57.22,1.17.25,1.8.1.63-.15,1.26-.48,1.89-.98.63-.51,1.23-1.19,1.81-2.04.58-.86,1.09-1.89,1.55-3.08.5-1.32.83-2.51.99-3.57.15-1.05.16-1.99.03-2.8-.14-.81-.4-1.48-.81-2.01-.4-.53-.9-.91-1.51-1.14Z"/>
    <path class="st42" d="M-191.57,1323.29l5.1,2.47-1.26,3.63c.62-.48,1.23-.9,1.81-1.26.58-.36,1.14-.63,1.67-.81.53-.18,1.04-.27,1.53-.26.49.01.95.13,1.39.34.37.18.68.39.94.64s.48.54.67.88l-4.79,8.67c-.18-.31-.38-.58-.61-.81s-.48-.42-.76-.55c-.29-.14-.6-.22-.93-.23-.33-.01-.69.04-1.07.15-.38.11-.79.29-1.24.54-.44.25-.92.59-1.43,1l-9.39,19.38-6.47-3.14,14.85-30.64Z"/>
    <path class="st42" d="M-182.09,1353.18c-.51.91-.75,1.65-.74,2.22.01.58.25.99.72,1.25.27.15.54.24.82.27.27.03.55,0,.84-.07l-3.63,8.04c-.78.05-1.58-.02-2.4-.2-.81-.17-1.55-.45-2.22-.82-.94-.52-1.65-1.19-2.15-1.99-.5-.81-.76-1.76-.79-2.85-.03-1.09.18-2.33.62-3.72.44-1.39,1.13-2.92,2.07-4.6l18.91-33.95,6.85,2.49-18.89,33.92Z"/>
    <path class="st42" d="M-171.36,1373.85l1.38-2.71c-1.42.57-2.76.82-4.01.75-1.25-.07-2.39-.44-3.42-1.13-1.13-.75-1.95-1.77-2.47-3.06-.51-1.29-.71-2.77-.58-4.44s.57-3.48,1.32-5.45,1.81-3.99,3.18-6.06c1.59-2.4,3.28-4.4,5.08-5.99,1.8-1.6,3.64-2.75,5.53-3.47,1.88-.72,3.79-.98,5.71-.78,1.92.2,3.8.89,5.64,2.08.11.07.2.13.28.19.08.06.17.11.26.18l8.09-12.24,6.64,3-27.92,42.25-4.71-3.11ZM-158.7,1351.9c-.15-.1-.31-.2-.46-.3s-.31-.21-.48-.31c-.85-.56-1.7-.88-2.55-.95-.85-.08-1.71.07-2.56.44s-1.68.94-2.49,1.72c-.81.78-1.6,1.75-2.37,2.91-.66,1-1.18,1.95-1.57,2.86-.39.91-.63,1.74-.73,2.48-.1.75-.04,1.4.15,1.97.2.57.55,1.02,1.04,1.34.52.34,1.12.5,1.82.49.7-.02,1.43-.2,2.2-.54l7.99-12.1Z"/>
    <path class="st42" d="M-173.68,1385.28c.84-.25,1.72-.53,2.66-.84s1.88-.67,2.85-1.07,1.92-.85,2.86-1.33c.95-.48,1.84-1.02,2.68-1.6-.21-.44-.33-.94-.36-1.49s.03-1.14.17-1.76c.14-.62.37-1.25.67-1.89.31-.64.7-1.27,1.18-1.88.6-.77,1.24-1.42,1.94-1.94.7-.52,1.4-.91,2.1-1.17.7-.26,1.37-.36,2.02-.3.65.06,1.22.28,1.71.66.5.39.87.9,1.1,1.55.23.64.31,1.38.24,2.2-.08.82-.33,1.73-.76,2.71-.43.98-1.06,2.01-1.88,3.07-.98,1.26-2.16,2.46-3.56,3.6-1.4,1.14-2.93,2.18-4.58,3.13-1.65.95-3.38,1.77-5.19,2.47-1.81.7-3.61,1.25-5.42,1.64l-.44-5.76Z"/>
    <path class="st42" d="M-113.64,1377c-1.07-.05-2.12-.12-3.13-.19-1.02-.07-1.99-.16-2.93-.27l4.01-7.39c.98.05,1.93.09,2.86.13.93.04,1.86.05,2.79.05.93,0,1.88-.01,2.86-.04.98-.03,2-.08,3.07-.16l4.41,4.51-33.71,32.97-5.13-5.25,24.91-24.36Z"/>
    <path class="st42" d="M-121.05,1402.97c-.08,1.33.02,2.53.3,3.59.28,1.07.77,2.03,1.47,2.88.61.74,1.35,1.26,2.22,1.54.87.29,1.89.33,3.05.13,1.17-.2,2.48-.66,3.94-1.38,1.46-.72,3.09-1.74,4.89-3.06.03-.03.06-.05.08-.06.02-.01.04-.03.08-.06-.68.14-1.36.2-2.03.18-.67-.03-1.3-.13-1.9-.32s-1.16-.47-1.69-.83c-.53-.36-1.01-.81-1.45-1.34-.86-1.04-1.39-2.22-1.57-3.53-.19-1.31-.06-2.67.38-4.1.44-1.43,1.2-2.88,2.28-4.36,1.07-1.48,2.45-2.91,4.12-4.29,1.86-1.53,3.72-2.71,5.59-3.52,1.87-.82,3.65-1.28,5.34-1.4,1.69-.12,3.27.11,4.73.68,1.46.57,2.71,1.49,3.76,2.76.7.85,1.22,1.78,1.57,2.79.35,1.01.49,2.09.42,3.25s-.35,2.37-.85,3.66c-.5,1.29-1.24,2.64-2.22,4.06-.98,1.42-2.21,2.91-3.68,4.46-1.47,1.55-3.22,3.16-5.23,4.82-3.24,2.67-6.33,4.8-9.27,6.38s-5.65,2.62-8.12,3.12c-2.47.5-4.7.46-6.68-.1-1.98-.56-3.63-1.64-4.95-3.24-1-1.21-1.71-2.51-2.14-3.9-.43-1.39-.59-2.86-.49-4.41l8.07-4.4ZM-94.32,1392.09c-.38-.46-.84-.77-1.38-.94-.54-.17-1.14-.22-1.77-.14-.64.08-1.32.29-2.05.65-.73.35-1.46.83-2.19,1.44-.73.61-1.34,1.22-1.8,1.86-.47.63-.8,1.25-1.01,1.86-.2.61-.27,1.19-.2,1.74.07.55.28,1.04.63,1.47.35.42.79.72,1.33.89.54.17,1.14.21,1.79.11.65-.09,1.34-.3,2.05-.62.71-.32,1.41-.76,2.09-1.33.67-.55,1.24-1.13,1.72-1.75.48-.62.84-1.24,1.09-1.86.25-.62.35-1.22.32-1.8-.03-.58-.24-1.1-.63-1.57Z"/>
    <path class="st42" d="M-62.04,1422.91c.66,1.13,1.11,2.36,1.36,3.68.25,1.32.26,2.69.04,4.11-.22,1.42-.67,2.87-1.36,4.36s-1.62,2.97-2.81,4.46c-1.19,1.49-2.65,2.95-4.36,4.38-1.71,1.43-3.71,2.81-5.98,4.14-2.35,1.37-4.6,2.47-6.76,3.29-2.16.82-4.2,1.4-6.12,1.73-1.92.33-3.72.43-5.4.3-1.68-.13-3.2-.46-4.58-.99-1.37-.53-2.59-1.24-3.65-2.13-1.06-.89-1.94-1.94-2.63-3.13-.66-1.13-1.11-2.36-1.35-3.69-.24-1.32-.25-2.7-.04-4.12.21-1.42.65-2.87,1.34-4.36s1.62-2.97,2.81-4.46c1.19-1.49,2.64-2.95,4.35-4.39,1.71-1.44,3.7-2.82,5.97-4.15,2.33-1.36,4.58-2.45,6.75-3.27,2.17-.82,4.22-1.39,6.15-1.72,1.92-.32,3.72-.42,5.4-.29,1.68.13,3.2.46,4.58.99,1.37.53,2.59,1.24,3.65,2.13,1.06.89,1.94,1.94,2.63,3.13ZM-70.9,1427.75c-.48-.83-1.21-1.48-2.19-1.97-.98-.48-2.15-.73-3.53-.75-1.38-.01-2.93.24-4.67.76-1.74.51-3.61,1.36-5.61,2.53-2.1,1.23-3.82,2.48-5.16,3.76-1.34,1.28-2.34,2.53-3,3.74-.66,1.21-1.01,2.37-1.05,3.47-.04,1.1.2,2.09.71,2.96.48.83,1.21,1.48,2.17,1.97.96.48,2.13.73,3.51.75,1.38.02,2.94-.23,4.67-.76,1.73-.52,3.61-1.37,5.64-2.56,2.1-1.23,3.82-2.48,5.17-3.75,1.34-1.27,2.34-2.52,3-3.74.66-1.22,1.01-2.37,1.05-3.47.04-1.09-.2-2.08-.71-2.95Z"/>
    <path class="st42" d="M-86.56,1475.99c-1.3-.49-2.42-1.15-3.38-1.99-.96-.84-1.71-1.87-2.26-3.09-.64-1.43-.85-2.9-.64-4.42.21-1.51.81-3,1.81-4.46,1-1.46,2.37-2.87,4.13-4.22,1.76-1.35,3.88-2.58,6.37-3.68,2.61-1.16,5.05-1.94,7.33-2.34,2.28-.4,4.33-.47,6.14-.21s3.36.83,4.64,1.72,2.23,2.03,2.86,3.44c.49,1.09.71,2.18.68,3.24-.03,1.06-.25,2.13-.65,3.18l-8.68,2.2c.35-.73.55-1.44.6-2.12.05-.69-.06-1.31-.31-1.88-.26-.58-.65-1.05-1.19-1.4-.53-.36-1.2-.58-1.99-.66-.79-.08-1.69-.02-2.7.18-1.01.2-2.13.58-3.34,1.12-1.19.53-2.22,1.1-3.08,1.72-.86.61-1.53,1.25-2.01,1.9-.48.65-.77,1.31-.87,1.97-.09.66,0,1.32.3,1.97.34.77.84,1.38,1.48,1.81.64.43,1.45.76,2.41.97l-7.64,5.03Z"/>
    <path class="st42" d="M-65.33,1467.51l8.28-2.97.92,2.57,7.12-2.56,3.46,6.4-8.15,2.93,1.77,4.94-8.28,2.97-1.77-4.94-11.56,4.15c-1.35.49-2.27,1.03-2.74,1.64-.48.61-.58,1.27-.32,2,.17.48.45.89.83,1.23.38.34.9.64,1.56.9l-8.21,3.85c-.93-.5-1.73-1.14-2.38-1.91-.65-.77-1.15-1.63-1.49-2.57-.85-2.36-.51-4.52,1.01-6.47,1.52-1.95,4.31-3.65,8.37-5.11l12.49-4.49-.92-2.57Z"/>
    <path class="st42" d="M-62.94,1515.56l-3.66-16.68,9.56-2.1,3.66,16.68-9.56,2.1Z"/>
    <path class="st42" d="M-39.89,1533.55c-.8-.72-1.56-1.44-2.3-2.14-.74-.7-1.44-1.39-2.09-2.07l7.79-3.16c.72.66,1.43,1.3,2.13,1.92.7.62,1.4,1.22,2.12,1.81.72.59,1.46,1.18,2.24,1.78.77.6,1.6,1.21,2.47,1.83l.54,6.28-46.98,4.06-.63-7.31,34.71-3Z"/>
    <path class="st42" d="M-37.97,1566.48c.88-.97,1.57-1.96,2.04-2.97s.71-2.06.71-3.14c0-.96-.25-1.83-.75-2.61-.5-.78-1.25-1.47-2.27-2.05-1.02-.58-2.32-1.06-3.92-1.43-1.59-.37-3.51-.62-5.74-.76h-.2c.62.34,1.17.73,1.66,1.16.49.44.91.92,1.26,1.46.35.54.62,1.11.8,1.73.18.61.27,1.27.27,1.96,0,1.35-.34,2.59-1.03,3.72-.69,1.13-1.65,2.1-2.9,2.91-1.25.81-2.76,1.45-4.53,1.9-1.77.46-3.74.69-5.91.69-2.41,0-4.6-.28-6.55-.83-1.96-.55-3.63-1.32-5.01-2.31-1.38-.99-2.46-2.17-3.22-3.53-.76-1.37-1.14-2.88-1.14-4.53s.43-3.19,1.3-4.59c.86-1.4,2.2-2.6,4-3.62,1.8-1.02,4.12-1.8,6.94-2.37,2.82-.56,6.2-.84,10.14-.84,4.2,0,7.94.33,11.22.97,3.27.65,6.03,1.57,8.26,2.76,2.23,1.19,3.93,2.63,5.09,4.32,1.16,1.69,1.74,3.57,1.74,5.66,0,1.57-.28,3.02-.83,4.37-.55,1.35-1.35,2.58-2.39,3.71l-9.03-1.74ZM-52.93,1557.95c0-.54-.16-1.04-.48-1.51-.32-.47-.76-.89-1.31-1.24-.55-.35-1.21-.63-1.97-.83-.76-.2-1.59-.3-2.47-.3-.86,0-1.68.08-2.44.25-.76.17-1.44.42-2.02.74-.59.32-1.05.72-1.39,1.18-.34.47-.52,1-.52,1.61,0,.59.15,1.13.46,1.61.31.48.73.89,1.28,1.24.54.35,1.21.61,1.99.8.79.19,1.65.29,2.6.29.93,0,1.78-.09,2.56-.28.77-.19,1.43-.46,1.97-.8.54-.35.97-.75,1.28-1.23.31-.47.46-.98.46-1.53Z"/>
    <path class="st42" d="M-39.68,1602.55l1.28-10.46-10.31-1.26-1.18,9.66-9.72-1.19,1.18-9.66-17.03-2.08.91-7.43,46.81,5.72-2.18,17.89-9.75-1.19Z"/>
    <path class="st42" d="M-78.25,1618.86c-.79-1.4-1.32-2.85-1.59-4.34-.27-1.49-.26-3.03.05-4.6.35-1.83,1.06-3.39,2.1-4.68,1.05-1.29,2.41-2.29,4.06-3.01,1.66-.71,3.6-1.13,5.83-1.24,2.23-.11,4.69.09,7.39.61,2.71.52,5.12,1.25,7.2,2.17,2.09.92,3.82,1.98,5.19,3.19,1.38,1.21,2.36,2.53,2.95,3.97.59,1.44.73,2.95.42,4.53-.28,1.44-.88,2.66-1.81,3.67-.93,1.01-2.16,1.77-3.71,2.31-1.55.53-3.38.81-5.5.84-2.12.03-4.52-.22-7.19-.74-.61-.12-1.2-.24-1.78-.38-.58-.13-1.18-.29-1.8-.47l2.44-12.59h-.07c-1.07-.09-2.03-.06-2.89.07-.86.13-1.59.37-2.2.74-.61.36-1.11.84-1.51,1.42-.4.58-.67,1.29-.83,2.12-.22,1.12-.19,2.23.08,3.33.27,1.1.77,2.21,1.51,3.31l-8.33-.25ZM-58.48,1615.59c.91.16,1.72.24,2.44.24.72,0,1.34-.09,1.86-.24.52-.16.94-.39,1.26-.68.32-.3.52-.67.6-1.11.08-.42.03-.82-.13-1.22-.17-.4-.47-.78-.89-1.14-.42-.36-.97-.71-1.63-1.05-.66-.34-1.44-.64-2.33-.91l-1.19,6.13Z"/>
    <path class="st42" d="M-33.28,1633l-.73,7.25-17.57-4.67c.57.94.94,1.88,1.09,2.81.15.94.1,1.88-.15,2.81-.35,1.31-1.05,2.41-2.1,3.31-1.05.9-2.38,1.56-3.99,1.98-1.61.42-3.45.58-5.52.5-2.07-.08-4.32-.45-6.73-1.09-2.8-.75-5.24-1.71-7.31-2.91-2.07-1.19-3.74-2.58-5.01-4.16-1.26-1.58-2.09-3.32-2.49-5.24-.39-1.92-.31-3.95.27-6.1.17-.64.35-1.29.55-1.93.19-.65.4-1.28.61-1.91.21-.62.42-1.22.63-1.79.21-.57.42-1.1.64-1.58l47.81,12.72ZM-74.23,1629.55c-.05.19-.1.37-.15.55-.05.18-.1.36-.15.55-.26.96-.29,1.87-.1,2.7.19.84.59,1.59,1.2,2.26.61.67,1.41,1.27,2.41,1.8.99.53,2.15.96,3.48,1.32,1.13.3,2.18.49,3.15.56.96.08,1.81.04,2.55-.11s1.34-.4,1.8-.77c.46-.36.77-.84.93-1.42.16-.6.11-1.23-.13-1.88-.25-.66-.66-1.29-1.23-1.91l-13.76-3.66Z"/>
  </g>
  <text/>
  <polyline class="st42" points="-274.45 567.87 -593.45 120.78 -593.45 574"/>
  <path class="st42" d="M-512.15,949.92"/>
  <line class="st42" x1="-442.15" y1="604.27" x2="-512.15" y2="927.66"/>
  <line class="st42" x1="-287.42" y1="655.77" x2="-426.1" y2="975.92"/>
  <line class="st42" x1="-76.26" y1="735.76" x2="-395.06" y2="1005.03"/>
  <line class="st42" x1="-32.45" y1="947.76" x2="-356.76" y2="1082.81"/>
  <text/>
  <g>
    <path class="st42" d="M-439.74,1542.64c.35-1.14,1.01-2.09,1.98-2.86.97-.77,2.13-1.33,3.5-1.69,1.37-.35,2.9-.49,4.59-.41,1.7.08,3.44.4,5.23.96,1.83.57,3.46,1.3,4.91,2.2,1.44.89,2.62,1.88,3.55,2.95.92,1.07,1.56,2.19,1.91,3.37.35,1.18.35,2.34,0,3.47-.35,1.12-1,2.07-1.96,2.85-.96.77-2.12,1.34-3.49,1.7-1.37.36-2.9.5-4.6.42s-3.46-.41-5.29-.97c-1.79-.56-3.41-1.28-4.85-2.18-1.44-.89-2.62-1.88-3.55-2.96-.92-1.07-1.56-2.2-1.92-3.39-.36-1.18-.37-2.33-.01-3.46Z"/>
    <path class="st42" d="M-420.48,1506.47c.22.94.43,1.86.62,2.75.19.89.36,1.76.5,2.6l-7.43-1.78c-.2-.86-.4-1.69-.61-2.51-.2-.81-.42-1.62-.65-2.43-.23-.8-.48-1.62-.75-2.46-.27-.84-.57-1.71-.91-2.62l2.82-4.84,37.14,21.6-3.28,5.64-27.45-15.96Z"/>
    <path class="st42" d="M-411.7,1492.53c.14.96.27,1.89.38,2.79.12.91.21,1.79.28,2.63l-7.25-2.4c-.13-.87-.26-1.72-.39-2.55-.13-.83-.28-1.65-.45-2.47-.16-.82-.34-1.66-.54-2.52-.2-.86-.43-1.75-.68-2.69l3.22-4.59,35.18,24.67-3.75,5.34-25.99-18.23Z"/>
    <path class="st42" d="M-401.49,1481.26c.35-.43.8-.73,1.35-.9.55-.17,1.17-.21,1.83-.13s1.36.3,2.08.62c.72.33,1.43.77,2.14,1.34.69.56,1.27,1.16,1.75,1.8.48.64.82,1.28,1.04,1.91.22.63.3,1.23.25,1.81s-.25,1.08-.6,1.51c-.35.43-.8.73-1.35.9-.55.17-1.16.22-1.83.14-.66-.08-1.36-.28-2.09-.61-.73-.33-1.44-.78-2.13-1.33-.71-.57-1.29-1.17-1.76-1.81-.47-.64-.81-1.28-1.04-1.92-.22-.64-.31-1.25-.25-1.83.05-.58.25-1.08.6-1.51ZM-387.36,1492.69c.35-.43.8-.73,1.35-.9s1.16-.22,1.82-.14c.66.08,1.35.29,2.08.62.73.33,1.44.78,2.13,1.33s1.27,1.16,1.75,1.8c.48.64.82,1.28,1.04,1.91s.3,1.23.25,1.81-.25,1.08-.6,1.51c-.35.43-.8.73-1.35.9-.55.17-1.16.22-1.83.14-.66-.08-1.36-.28-2.09-.61-.73-.33-1.44-.78-2.13-1.33-.69-.56-1.27-1.16-1.75-1.8-.48-.64-.82-1.28-1.04-1.92-.21-.63-.29-1.24-.24-1.82.05-.58.25-1.08.6-1.51Z"/>
    <path class="st42" d="M-398.53,1457.9c1.07-1.1,2.36-1.8,3.88-2.12,1.52-.32,3.24-.18,5.18.4s4.07,1.64,6.4,3.18c2.33,1.54,4.84,3.62,7.54,6.25,2.76,2.69,4.96,5.21,6.61,7.56,1.65,2.36,2.8,4.53,3.45,6.51.66,1.99.84,3.77.55,5.35-.29,1.58-.98,2.94-2.09,4.07-1.06,1.09-2.35,1.79-3.88,2.1-1.53.31-3.26.18-5.18-.4-1.93-.58-4.06-1.64-6.4-3.18-2.34-1.54-4.85-3.62-7.54-6.24-2.74-2.67-4.94-5.19-6.6-7.55s-2.81-4.54-3.46-6.52c-.65-1.99-.84-3.77-.55-5.35.29-1.58.98-2.94,2.09-4.07ZM-392.31,1464.33c-.37.38-.55.9-.55,1.57,0,.67.24,1.5.73,2.48.49.98,1.26,2.13,2.3,3.45,1.04,1.31,2.42,2.8,4.14,4.48,1.78,1.73,3.35,3.11,4.71,4.13,1.37,1.02,2.56,1.77,3.57,2.25,1.01.47,1.86.69,2.53.65.67-.04,1.21-.27,1.6-.67.38-.39.57-.91.58-1.57.01-.66-.23-1.48-.72-2.47-.49-.99-1.26-2.13-2.3-3.45-1.04-1.31-2.43-2.81-4.17-4.5-1.76-1.72-3.33-3.09-4.7-4.13-1.37-1.03-2.56-1.78-3.58-2.24-1.02-.46-1.86-.67-2.54-.64-.68.03-1.22.25-1.62.67Z"/>
    <path class="st42" d="M-378.36,1439.59c1.19-.96,2.56-1.5,4.11-1.63,1.54-.13,3.24.21,5.1,1.02,1.85.81,3.84,2.12,5.96,3.93,2.12,1.81,4.37,4.18,6.73,7.12,2.41,3,4.29,5.77,5.64,8.3,1.35,2.54,2.23,4.83,2.64,6.88s.38,3.84-.1,5.38c-.48,1.54-1.33,2.8-2.56,3.79-1.18.95-2.55,1.49-4.11,1.62-1.56.13-3.25-.21-5.1-1.02-1.84-.81-3.83-2.12-5.96-3.93-2.14-1.81-4.38-4.18-6.73-7.1-2.4-2.98-4.28-5.75-5.63-8.29-1.35-2.54-2.24-4.84-2.65-6.89-.41-2.05-.38-3.84.1-5.38.48-1.54,1.33-2.8,2.56-3.79ZM-372.96,1446.73c-.41.33-.66.82-.74,1.49-.08.66.06,1.51.42,2.55.37,1.04.99,2.27,1.87,3.7.88,1.43,2.07,3.08,3.57,4.95,1.55,1.93,2.95,3.49,4.18,4.67s2.32,2.07,3.27,2.66c.95.59,1.76.91,2.44.95.67.04,1.23-.12,1.67-.47.42-.34.67-.83.77-1.49.09-.65-.05-1.5-.42-2.54-.37-1.04-.99-2.27-1.87-3.7-.88-1.43-2.07-3.09-3.59-4.97-1.54-1.92-2.93-3.47-4.16-4.66-1.23-1.19-2.33-2.08-3.28-2.66-.96-.58-1.77-.89-2.45-.94s-1.24.1-1.69.46Z"/>
    <path class="st42" d="M-347.86,1442.87l-4.13-6.87,2.08-1.25-3.55-5.91,4.96-4.15,4.07,6.76,4-2.4,4.13,6.86-4,2.41,5.77,9.59c.68,1.12,1.32,1.85,1.94,2.17.62.32,1.22.31,1.81-.05.39-.23.7-.55.93-.94.23-.4.4-.91.5-1.54l4.88,6.66c-.27.92-.68,1.73-1.23,2.44-.55.71-1.21,1.29-1.98,1.75-1.91,1.15-3.86,1.21-5.85.18-1.99-1.03-3.99-3.22-6.02-6.59l-6.24-10.36-2.08,1.25Z"/>
    <path class="st42" d="M-328.48,1422.1c1.29-.63,2.65-.88,4.09-.77,1.44.12,2.89.58,4.33,1.41,1.44.82,2.84,2,4.19,3.53,1.35,1.53,2.57,3.4,3.64,5.61,1.14,2.34,1.91,4.54,2.32,6.61.41,2.07.5,3.95.27,5.64-.23,1.69-.77,3.16-1.61,4.4-.85,1.24-1.96,2.2-3.33,2.87-1.3.63-2.67.89-4.13.78s-2.91-.57-4.35-1.39c-1.45-.82-2.84-2-4.19-3.53-1.35-1.53-2.56-3.4-3.63-5.61-1.14-2.34-1.92-4.54-2.33-6.62-.41-2.08-.49-3.96-.25-5.65s.79-3.15,1.63-4.4c.85-1.24,1.96-2.2,3.35-2.88ZM-324.94,1430c-.47.23-.85.6-1.13,1.11-.28.51-.45,1.12-.5,1.86s.03,1.56.25,2.49c.21.93.58,1.92,1.09,2.97.56,1.14,1.14,2.09,1.76,2.86.62.77,1.23,1.35,1.84,1.76.61.41,1.21.65,1.8.72.59.07,1.13-.01,1.64-.26.48-.24.87-.61,1.15-1.12.28-.51.45-1.13.5-1.86.05-.73-.04-1.55-.25-2.47s-.58-1.9-1.09-2.95c-.56-1.16-1.15-2.12-1.75-2.88-.6-.76-1.21-1.35-1.82-1.77s-1.22-.66-1.81-.73c-.59-.07-1.15.02-1.67.27Z"/>
    <path class="st42" d="M-302.32,1411.27c-.45.85-.9,1.68-1.35,2.48-.45.8-.89,1.56-1.34,2.28l-4.42-6.23c.41-.78.81-1.54,1.2-2.29.38-.75.75-1.5,1.11-2.25.35-.76.71-1.54,1.06-2.35.35-.81.7-1.66,1.04-2.57l5.31-1.79,13.69,40.73-6.19,2.08-10.11-30.09Z"/>
    <path class="st42" d="M-284.31,1393.62c1.35-.33,2.65-.36,3.9-.09,1.25.27,2.38.79,3.41,1.58s1.93,1.81,2.69,3.06c.76,1.25,1.35,2.71,1.75,4.38.3,1.23.47,2.37.52,3.4.05,1.04,0,1.99-.15,2.86-.14.88-.36,1.68-.65,2.41-.29.74-.64,1.41-1.03,2.02.51.29,1,.61,1.47.96.47.35.93.74,1.37,1.16.44.42.86.89,1.26,1.39.4.51.77,1.05,1.1,1.63.33.58.64,1.21.9,1.88.27.67.49,1.39.68,2.15.44,1.8.6,3.49.48,5.07-.12,1.58-.5,2.99-1.13,4.24-.63,1.25-1.5,2.32-2.6,3.2-1.1.88-2.41,1.5-3.92,1.87-1.44.35-2.81.39-4.13.13s-2.52-.79-3.6-1.6-2.03-1.86-2.84-3.16c-.81-1.3-1.42-2.81-1.84-4.54-.29-1.2-.45-2.33-.48-3.4-.03-1.07.05-2.08.23-3.03.18-.95.45-1.83.81-2.66.35-.82.77-1.59,1.24-2.31-.62-.39-1.23-.84-1.82-1.36-.59-.52-1.15-1.12-1.68-1.81-.53-.69-1.01-1.49-1.43-2.39s-.78-1.93-1.06-3.09c-.42-1.72-.58-3.36-.48-4.91.1-1.55.44-2.93,1.01-4.16.57-1.23,1.37-2.27,2.38-3.13,1.01-.86,2.22-1.46,3.64-1.8ZM-282.68,1401.1c-.42.1-.77.3-1.08.59s-.54.65-.71,1.07-.26.91-.29,1.47c-.03.55.03,1.14.18,1.74.16.65.38,1.22.67,1.73.29.51.63.96,1.02,1.35.38.39.82.74,1.3,1.04.48.3.98.55,1.51.75.31-.43.58-.88.81-1.35.23-.47.41-.97.54-1.48.12-.52.19-1.06.18-1.63,0-.57-.08-1.16-.22-1.76-.15-.62-.36-1.19-.63-1.68-.27-.49-.58-.9-.92-1.21-.35-.31-.72-.52-1.12-.63-.4-.11-.81-.11-1.24,0ZM-278.59,1419.07c-.25.31-.48.62-.7.95-.22.32-.41.66-.59,1-.17.34-.32.69-.45,1.04-.13.35-.22.72-.28,1.1-.06.38-.08.78-.06,1.2.02.42.08.86.19,1.31.17.69.41,1.28.72,1.79.31.51.67.92,1.09,1.25.42.33.87.54,1.35.65.48.11.99.1,1.51-.03.51-.12.96-.35,1.34-.67.38-.32.68-.71.89-1.18.22-.47.34-.99.38-1.57.04-.58-.02-1.19-.18-1.84-.18-.73-.43-1.34-.76-1.86s-.72-.96-1.18-1.33c-.45-.38-.96-.71-1.51-1-.55-.29-1.14-.56-1.77-.8Z"/>
    <path class="st42" d="M-264.06,1403.11c.54-.09,1.08-.01,1.61.23.53.24,1.01.62,1.45,1.12.44.51.82,1.13,1.14,1.85.32.72.56,1.53.7,2.43.14.88.18,1.71.11,2.51-.07.8-.24,1.5-.49,2.12-.25.62-.59,1.12-1.02,1.52s-.91.64-1.45.73c-.54.09-1.08.01-1.61-.23-.53-.24-1.01-.61-1.46-1.11-.44-.5-.83-1.12-1.15-1.85-.32-.73-.56-1.54-.7-2.41-.15-.9-.18-1.74-.11-2.53.07-.79.24-1.5.5-2.12.26-.62.6-1.13,1.03-1.53.42-.39.91-.64,1.45-.73ZM-261.12,1421.04c.54-.09,1.08-.01,1.61.23.53.24,1.01.61,1.45,1.11s.82,1.12,1.14,1.85c.32.73.56,1.54.7,2.41.14.88.18,1.71.11,2.51-.07.8-.24,1.5-.49,2.12-.26.61-.6,1.12-1.02,1.51-.42.4-.91.64-1.45.73-.54.09-1.08.01-1.61-.23-.53-.24-1.02-.61-1.46-1.11-.45-.5-.83-1.12-1.15-1.85-.32-.73-.56-1.54-.7-2.41-.14-.88-.18-1.71-.11-2.51.07-.8.24-1.5.5-2.12.26-.61.61-1.12,1.03-1.52s.91-.64,1.45-.73Z"/>
    <path class="st42" d="M-246.7,1387.56c1.53-.13,2.96.19,4.32.95s2.57,1.99,3.65,3.7c1.08,1.71,1.99,3.91,2.74,6.6s1.27,5.91,1.58,9.67c.32,3.84.32,7.18.02,10.04s-.86,5.25-1.67,7.18c-.81,1.93-1.84,3.39-3.1,4.4s-2.67,1.57-4.25,1.7c-1.51.13-2.95-.2-4.31-.96s-2.57-2-3.65-3.7c-1.07-1.7-1.98-3.9-2.74-6.6-.75-2.7-1.28-5.91-1.59-9.65-.32-3.82-.32-7.16-.02-10.02.3-2.87.86-5.26,1.67-7.19.81-1.93,1.84-3.39,3.1-4.4,1.26-1,2.67-1.57,4.25-1.7ZM-246.24,1396.5c-.52.04-1.01.32-1.45.82s-.8,1.29-1.08,2.35-.45,2.43-.53,4.11c-.08,1.67-.01,3.71.18,6.1.21,2.47.49,4.54.84,6.21.36,1.67.76,3.01,1.22,4.04.46,1.03.95,1.74,1.49,2.15.54.41,1.08.59,1.65.55.54-.04,1.03-.31,1.47-.8s.8-1.27,1.08-2.33c.28-1.06.45-2.43.53-4.11.07-1.67.01-3.72-.19-6.13-.2-2.45-.48-4.52-.83-6.2-.35-1.68-.76-3.03-1.23-4.04-.47-1.01-.96-1.73-1.5-2.15-.53-.42-1.08-.61-1.66-.56Z"/>
    <path class="st42" d="M-219.81,1386.85c1.53.04,2.92.52,4.18,1.42,1.26.9,2.33,2.26,3.21,4.08s1.54,4.11,1.99,6.86c.44,2.75.61,6.02.5,9.78-.11,3.85-.48,7.17-1.09,9.98-.62,2.81-1.44,5.12-2.46,6.95-1.02,1.83-2.21,3.17-3.57,4.03-1.36.86-2.83,1.27-4.41,1.22-1.52-.04-2.91-.52-4.18-1.44-1.27-.91-2.34-2.28-3.21-4.09-.88-1.81-1.54-4.1-1.99-6.86-.45-2.77-.62-6.02-.51-9.77.11-3.83.47-7.15,1.1-9.97.62-2.81,1.44-5.14,2.46-6.96,1.02-1.83,2.21-3.17,3.57-4.03,1.36-.86,2.83-1.26,4.41-1.22ZM-220.34,1395.79c-.52-.02-1.04.2-1.53.65-.5.45-.94,1.19-1.33,2.21-.39,1.03-.72,2.37-.98,4.03-.26,1.66-.42,3.68-.49,6.08-.07,2.48-.02,4.57.15,6.27.17,1.7.42,3.08.76,4.15.34,1.07.75,1.84,1.24,2.3.49.47,1.01.71,1.58.72.54.02,1.05-.2,1.55-.63.49-.44.94-1.17,1.33-2.2s.72-2.37.98-4.03c.26-1.66.43-3.69.49-6.11.07-2.46.02-4.54-.14-6.25-.16-1.71-.42-3.09-.77-4.15-.35-1.06-.77-1.83-1.25-2.3-.48-.48-1.01-.72-1.58-.74Z"/>
  </g>
  <path class="st42" d="M-91.87,1592.43c2.77,62.01-42.33,111.48-100.73,110.51-58.4-.98-107.98-52.03-110.75-114.04-2.77-62.01,42.33-111.48,100.73-110.51,58.4.98,107.98,52.03,110.75,114.04Z"/>
  <text class="st5" transform="translate(-271.41 1643.55) rotate(.36) scale(.51 1) skewX(6.48)"><tspan class="st49"><tspan x="0" y="0">FREE</tspan></tspan><tspan class="st50"><tspan x="307.62" y="161.64">dx</tspan></tspan></text>
  <text></text>
  <text class="st13" transform="translate(7.41 1098.12) scale(.31 1)"><tspan x="0" y="0">The exhibition is presented by Arnolfini in collaboration with Bristol Photo Festival, an international biennial of contemporary photography, staged across the citys museums, galleries and independent spaces.</tspan></text>
  <text/>
  <text class="st15" transform="translate(11.25 1068.34) scale(.36 1)"><tspan x="0" y="0">lluminanceand earlier series such as Ametsuchi and AILA, whilst also showcasing Kawauchis 30+ photobook publications, exploring her career through words and imagery.</tspan></text>
  <text class="st10" transform="translate(11.99 1039.05) scale(.2 1)"><tspan x="0" y="0">universal journeys, featuring photographic prints and film installations from M/E (Mother Earth), </tspan></text>
  <text class="st16" transform="translate(12.23 1007.7) scale(.22 1)"><tspan x="0" y="0">At the edge of the everyday world highlights the small, personal move- ments within our lives that go on to create larger, </tspan></text>
  <text class="st14" transform="translate(750.08 1048.14) scale(.31 1)"><tspan x="0" y="0">lluminanceand earlier series such as Ametsuchi and AILA, </tspan></text>
  <g>
    <path class="st1" d="M665.3,834.16c194.08-140.1,332.13,38.51,332.13,38.51"/>
    <text></text>
    <text class="st27" transform="translate(748.54 780.91) rotate(-.1) scale(.77 1) skewX(.08)"><tspan class="st53" x="0" y="0">AT THE EDGE</tspan><tspan class="st53" x="0" y="44.31">OF THE</tspan><tspan class="st60" x="0" y="88.62">EVERYDAY</tspan><tspan class="st53" x="0" y="132.92">WORLD</tspan></text>
  </g>
  <text class="st21" transform="translate(751.35 948.92) rotate(.88) scale(.49 1)"><tspan class="st59"><tspan x="0" y="0">19 October</tspan></tspan><tspan class="st59"><tspan x="0" y="28.87">-16 February 2024</tspan></tspan><tspan class="st56"><tspan x="0" y="86.62">FREE</tspan></tspan></text>
  <text class="st34" transform="translate(748.38 676.52) scale(.88 1)"><tspan class="st52"><tspan x="0" y="0">Rinko</tspan></tspan><tspan class="st61"><tspan x="0" y="54.84">Kawauchi</tspan></tspan></text>
  <text class="st29" transform="translate(9.3 1252.33) scale(1.3 1)"><tspan x="0" y="0">Rinko</tspan><tspan x="0" y="72.72">Kawauchi</tspan></text>
  <g>
    <path class="st1" d="M-123.6,1520.98c327.91-246,561.16,67.62,561.16,67.62"/>
    <text></text>
    <text class="st24" transform="translate(16.97 1427.48) rotate(-.1) scale(.74 1) skewX(.07)"><tspan class="st54" x="0" y="0">AT THE EDGE</tspan><tspan class="st58" x="0" y="77.8">OF THE</tspan><tspan class="st54" x="0" y="155.6">EVERYDAY</tspan><tspan class="st58" x="0" y="233.4">WORLD</tspan></text>
  </g>
  <text class="st14" transform="translate(748.84 1068.34) scale(.31 1)"><tspan x="0" y="0">whilst also showcasing Kawauchis 30+ photobook publications, exploring her career through words and imagery.</tspan></text>
  <path class="st42" d="M707.2,1156.13c-1.21-188.98-2.42-377.95-3.63-566.93"/>
  <path class="st42" d="M1030.47,1160.78c-1.21-188.98-2.42-377.95-3.63-566.93"/>
  <path class="st46" d="M864.63,562.44c-153.94,8.93-278.28-104.12-277.7-252.5.57-148.38,125.83-275.9,279.78-284.83,153.94-8.93,278.28,104.12,277.7,252.5-.57,148.38-125.83,275.9-279.78,284.83Z"/>
  <text/>
  <text>
    <textPath xlink:href="#path"><tspan class="st18"><tspan x="0" y="0">Rinko </tspan></tspan>
    </textPath></text>
  <text/>
  <text>
    <textPath xlink:href="#path1"><tspan class="st28"><tspan x="0" y="0">At the edge of the everyday world</tspan></tspan>
    </textPath></text>
  <text>
    <textPath xlink:href="#path2"><tspan class="st33"><tspan x="0" y="0">19 October - 16 February</tspan></tspan>
    </textPath></text>
  <text>
    <textPath xlink:href="#path3"><tspan class="st38"><tspan x="0" y="0">The Arnolfini, Free entry</tspan></tspan>
    </textPath></text>
  <polyline class="st51" points="-208.87 -1.63 -10.38 250.18 -10.38 -1.63"/>
</svg>